<svg width="1305" height="320" viewBox="0 0 1305 320" fill="none" xmlns="http://www.w3.org/2000/svg">
<mask id="mask0_1320_38" style="mask-type:alpha" maskUnits="userSpaceOnUse" x="0" y="0" width="1305" height="320">
<rect x="0.5" y="0.5" width="1303.95" height="319" fill="url(#paint0_linear_1320_38)" stroke="#4D9E9E"/>
</mask>
<g mask="url(#mask0_1320_38)">
<rect x="0.5" y="0.5" width="1324.44" height="398.186" fill="url(#paint1_linear_1320_38)" stroke="#4D9E9E"/>
<path d="M356.998 31.1398C288.332 48.4801 195.603 66.1525 235.52 110.597C275.437 155.042 46.0463 169.217 87.3503 206.038C128.654 242.858 -33.468 313.729 -33.468 313.729L-25.994 177.935L-13.186 -9.48028L174.598 -18.6943L401.958 -29.8495C445.968 6.86045 425.665 13.7995 356.998 31.1398Z" fill="#70B1B1" stroke="#4D9E9E"/>
<path d="M749.017 158.822C794.737 160.21 795.893 190.163 860.168 102.052C924.442 13.9406 1010.5 127.365 1036.95 57.9314C1063.4 -11.5017 1385.24 -12.8311 1332 19.5879L1313 131.588L1225.02 397.854L239 397.857C239 397.857 462.497 354.234 477.437 282.524C492.376 210.814 681.81 272.356 662.69 217.373C643.57 162.39 703.296 157.434 749.017 158.822Z" fill="#70B1B1"/>
<path d="M1095.5 236.5C1141.22 237.888 1148 165.639 1219.5 139C1291 112.361 1408.55 128.87 1435 59.4373C1461.45 -9.99587 1632.27 79.9417 1579.04 112.361L1591.95 221.538L1549.12 491.944L737 491.944C737 491.944 900.736 435.169 884.006 397.519C867.275 359.869 965.5 368.5 983 314.5C1000.5 260.5 1049.78 235.112 1095.5 236.5Z" fill="#A1CCCC"/>
</g>
<defs>
<linearGradient id="paint0_linear_1320_38" x1="-1.28123e-05" y1="16.8889" x2="1309.49" y2="186.203" gradientUnits="userSpaceOnUse">
<stop stop-color="#4D9E9E"/>
<stop offset="1" stop-color="white"/>
</linearGradient>
<linearGradient id="paint1_linear_1320_38" x1="0" y1="0" x2="1654.35" y2="357.986" gradientUnits="userSpaceOnUse">
<stop offset="0.213542" stop-color="#4D9E9E"/>
<stop offset="1" stop-color="white"/>
</linearGradient>
</defs>
</svg>
