<svg xmlns="http://www.w3.org/2000/svg" viewBox="0 0 500 500"><g id="freepik--background-complete--inject-5"><rect y="382.4" width="500" height="0.25" style="fill:#ebebeb"></rect><rect x="416.78" y="398.49" width="33.12" height="0.25" style="fill:#ebebeb"></rect><rect x="322.53" y="401.21" width="8.69" height="0.25" style="fill:#ebebeb"></rect><rect x="396.59" y="389.21" width="19.19" height="0.25" style="fill:#ebebeb"></rect><rect x="52.46" y="390.89" width="43.19" height="0.25" style="fill:#ebebeb"></rect><rect x="104.56" y="390.89" width="6.33" height="0.25" style="fill:#ebebeb"></rect><rect x="131.47" y="395.11" width="93.68" height="0.25" style="fill:#ebebeb"></rect><path d="M237,337.8H43.91a5.71,5.71,0,0,1-5.7-5.71V60.66A5.71,5.71,0,0,1,43.91,55H237a5.71,5.71,0,0,1,5.71,5.71V332.09A5.71,5.71,0,0,1,237,337.8ZM43.91,55.2a5.46,5.46,0,0,0-5.45,5.46V332.09a5.46,5.46,0,0,0,5.45,5.46H237a5.47,5.47,0,0,0,5.46-5.46V60.66A5.47,5.47,0,0,0,237,55.2Z" style="fill:#ebebeb"></path><path d="M453.31,337.8H260.21a5.72,5.72,0,0,1-5.71-5.71V60.66A5.72,5.72,0,0,1,260.21,55h193.1A5.71,5.71,0,0,1,459,60.66V332.09A5.71,5.71,0,0,1,453.31,337.8ZM260.21,55.2a5.47,5.47,0,0,0-5.46,5.46V332.09a5.47,5.47,0,0,0,5.46,5.46h193.1a5.47,5.47,0,0,0,5.46-5.46V60.66a5.47,5.47,0,0,0-5.46-5.46Z" style="fill:#ebebeb"></path><path d="M351.66,317.53c-36.54,0-81.5-9.42-126.62-26.52s-85.11-39.91-112.48-64.17C85,202.37,73.43,179.25,80.07,161.74a1,1,0,1,1,1.79.68c-13.21,34.84,51.33,91.72,143.86,126.8,44.9,17,89.62,26.39,125.94,26.39h.13c36,0,59.36-9.24,65.7-26a1,1,0,0,1,1.24-.55,1,1,0,0,1,.55,1.23c-6.64,17.52-30.61,27.17-67.49,27.2Z" style="fill:#e0e0e0"></path><path d="M161.31,382.49c-7.66,0-14.25-1.94-19.55-5.87a1,1,0,0,1,1.14-1.54c14.37,10.64,39,5.78,69.3-13.68C242.79,341.77,275.38,309.68,304,271c58.87-79.54,82.41-162.29,52.46-184.45A1,1,0,0,1,357.59,85c15.05,11.14,17.84,36.83,7.86,72.33-9.9,35.2-31.18,76-59.92,114.8S244,343.26,213.24,363C193.13,375.92,175.4,382.49,161.31,382.49Z" style="fill:#e0e0e0"></path><path d="M389.33,242.49c0-4.67-.16-9.27-.57-13.81A140.46,140.46,0,0,0,249.86,101H247.3a140.32,140.32,0,0,0-50.05,9.78h0A140.51,140.51,0,1,0,389.33,242.49Z" style="fill:#ebebeb"></path><path d="M291,343.82c2.64.25,3.82,3.49,4.36,6.14.8,4,1.61,7.93,2.4,11.9-4.83,2.27-4.43,8.16-2.18,12.16a140.52,140.52,0,0,0,93.8-131.53c0-4.67-.16-9.27-.57-13.81a2.53,2.53,0,0,0-.36-.2c-3.83-1.81-6.85,1.46-9.74,3.31-.65.42-9.07,4.5-9.18,3.37a37.07,37.07,0,0,1-.58,11,1.15,1.15,0,0,1-.37.73c-.54.37-1.16-.38-1.36-1-.52-1.62-.73-3.32-1.34-4.91a5.76,5.76,0,0,0-3.34-3.62c-1.63-.51-3.4.09-5.09-.15a7,7,0,0,1-4.83-3.62,23.13,23.13,0,0,1-2-5.67c-2,4.41-7,1.69-10,5.25-.95,1.14-2.1,2.79-3.48,2.24s-1.46-2.77-2.86-2.94c-1-.12-1.7.95-1.85,1.93a10.52,10.52,0,0,1-.4,2.93,2.58,2.58,0,0,1-3.53,1.08c-1.07-.64-1.48-2-2.15-3s-2.1-2-3.11-1.21a2,2,0,0,0-.55.68c-1,1.88.13,4.16,1.44,5.82s2.91,3.33,3.05,5.44a1.76,1.76,0,0,1-2.43-.51,3,3,0,0,0-.51-.82c-.54-.46-1.34,0-1.93.36a12.68,12.68,0,0,1-9.55,1.69L312,234c-1,0-1.55-.1-1.92-1.09-3.21,3.12-6.15,6.49-9.69,9.31a2.58,2.58,0,0,0-1,1.23,8,8,0,0,0,0,1.69c-.11,1.87-2.62,2.36-4.49,2.31-.55.3-.23,1.19.31,1.49s1.22.33,1.71.72a2.36,2.36,0,0,1,.48,2.57,6.18,6.18,0,0,1-7.74,3.86,1.83,1.83,0,0,1-.94-.64c-.47-.7,0-1.62.06-2.46.34-3.32-3.24-2.55-4.89-1.63-2.24,1.24-3.49,4.54-3.91,6.9-.49,2.76-2.57,21.06-8.68,18.53a2.76,2.76,0,0,1-1.27-1.3c-.89-1.67-.83-3.67-1.47-5.43s-2.66-3.38-4.3-2.46c-.66.36-1.08,1.05-1.71,1.47-1.75,1.15-4.25-.24-6.16.64a17.43,17.43,0,0,0-2.29,1.76c-.8.55-2,.72-2.61-.06s.11-2.21-.41-3.16-2.23-.79-2.8.19a2.94,2.94,0,0,0,.48,3.17,3.85,3.85,0,0,1,1,1.48c.22,1-.77,1.9-1.65,2.51L244,278.5a2.47,2.47,0,0,0,2,1.9c.93.26,1.93.25,2.85.56,4.46,1.49,4.45,8.1,10.29,6.8a2.82,2.82,0,0,1,3.27-3.11c2.14.52,3.53,3.58,5.65,3,.74-.21,1.3-.86,2.05-1,2.07-.49,3.08,2.68,3.66,4,1.92,4.48-1.07,5-.95,9,.05,1.82,1.41,3.37,1.74,5.17s-.27,3.37,0,5c.61,4.59,6.68,1.81,9.37,1.28-1.46,2.6.72,5.76,3.09,7.56,3.64,2.77,3,2.54,3.47,6.53a2.91,2.91,0,0,0,1.73,2.48c1.74.62,3.44-1.1,5.28-1.28.88-.09,1.78.19,2.65,0,2.3-.39,3.1-3.2,4.59-5a6.35,6.35,0,0,1,5.45-2.19,13.19,13.19,0,0,1,0,3.55l-3.86,2.39a8.77,8.77,0,0,0-3,2.58,7,7,0,0,1-1.21,1.88c-1.13,1-2.83.38-4.32.28-3.6-.23-9.46,2-12.93,3.15-3.7,1.22-5,3.84-8.41,5a1.09,1.09,0,0,0-.38,1.6,2.39,2.39,0,0,0,1.64.88,6.63,6.63,0,0,0,4.28-.71c-1.7.93,3.26,5,4.16,5.23,1.47.33,3.45-.78,4.95-.85,3.71-.19,5.86.55,3.42,4.58-.93,1.55-2,3.51-1,5a2.31,2.31,0,0,1,2.71,1.09,4.85,4.85,0,0,1,.47,3.1,3.13,3.13,0,0,1-.77,2,4.83,4.83,0,0,0-.86.76c-.69,1,.73,2.17,1.9,2.62" style="fill:#f5f5f5;opacity:0.4;isolation:isolate"></path><path d="M168,182.9c1.15-.86,2.79-.16,4,.63s2.61,1.73,4,1.24c0-1.67.05-3.35.08-5a1.16,1.16,0,0,1,.25-.88,1.23,1.23,0,0,1,.91-.21l3.23.15c.9,1-1.6,2.19-1.25,3.48.16.57.8.82,1.32,1.1,4.44,2.38,1.62,7.33-.39,10-2.33,3.12-2.17,7.38-1.92,11.27.09,1.38.26,2.93,1.32,3.84s2.57.83,3.89,1.22c2.3.67,3.93,2.7,6.07,3.76,7.51,3.69,12.46-4.35,10-10.68-1.27-3.28-1.81-2.66-1.09-6.17.31-1.46-.18-3.18,1.34-4.18a2.68,2.68,0,0,1,4.07,2c.13,1.93.57,3.76-.22,5.57,2.22-.82,4.87-.3,7.29-.3a3.19,3.19,0,0,0,4.5,3.07c-.06-1.1.23-2.61,1.33-2.6a2,2,0,0,1,.9.32c1.15.68,2.17,1.59,3.38,2.15,1.87.87,7.23.46,8.06,3,.15.44.15.92.32,1.36a2.08,2.08,0,0,0,2.5,1.07,2.8,2.8,0,0,0,1.81-2.18c.12-.65.05-1.33.22-2,.91-3.4,4.4-.74,6-1.65.75-.44,3.83-6.24,3.89-6.94,1.49,1.84,3.71,3.4,6.17,3.29,2.7-.13,3.86-2.28,4.46-4.9.64-2.77.68-6.07,1.28-8.08.33-1.08.61-2.39-.15-3.22-1-1-3-.64-3.68-1.87a3.94,3.94,0,0,1-.32-1.29,4.94,4.94,0,0,0-5.87-3.8c-.83-.54-.85-1.72-.9-2.71s-.47-2.22-1.46-2.29-1.65,1.41-1.63,2.55a12.47,12.47,0,0,0,.54,3.43,4.1,4.1,0,0,1,.29,2.54,3.22,3.22,0,0,1-1.3,1.44,7.55,7.55,0,0,1-4.33,1.75c-1.58,0-3.24-1.17-3.3-2.75a6.74,6.74,0,0,0,0-1.27c-.25-1.06-1.61-1.42-2.69-1.28a9.66,9.66,0,0,1-3.22.38c-1.07-.21-2-1.61-1.2-2.39-1.44-.51-3.5-.76-4.06.66a4.12,4.12,0,0,0-.14,1.45c-.06,3-3.81,7.37-6.37,4.22-1.68-2.08,1.22-5.85-1.8-7.56-1.44-.81-3.4-.09-4.83-.94-.45-.53.32-1.24,1-1.42a6.43,6.43,0,0,1,6,1.64c.85-1.75-.47-4.33,1-5.59s4.31.22,5.42-1.37a3.15,3.15,0,0,0,.4-1.58c.2-2.73-.64-7.72,3.2-8.18a5.76,5.76,0,0,0,1.39-.19c1.33-.52,1.32-2.38,1.07-3.78-1.44-.62-3,.45-4.38,1.18s-3.6.86-4.07-.64c-.34-1.07.5-2.42-.21-3.29-.33-.4-.91-.56-1.19-1-.68-1.07,1-2.14,1.26-3.37.4-1.69-1.87-2.78-3.6-2.65s-3.68.71-5.09-.32c-.44-.33-.77-.79-1.18-1.15-1.27-1.13-3.13-1.23-4.82-1.28-2.72-.07,3.45-11.22,3.51-11.9.47-5.17-4.83-7.92-7.87-11.21a31.18,31.18,0,0,1-3.91-5.84c-45.68,18.08-79.46,60-87.12,108.58a46.36,46.36,0,0,0-.77,6.6c3.21-.91,8.2-3.31,11.45-1.36,4.13,2.48,1.14,8.61,5.91,10.43,1.18,0,.84-2,1.52-2.92a4,4,0,0,1,1.66-1c.59-.3,1.15-.93.92-1.54,1-.81,2.45.22,3.41,1.12a8.45,8.45,0,0,0,3.92,2.33c3.14.67,6.05-1.59,8.88-3.11a42.18,42.18,0,0,1,7.43-2.84c-1.23.07-1.85-1.63-1.38-2.76a12.51,12.51,0,0,1,2.33-2.83c1.33-1.62.3-3.5,1.42-5.22,1.37-2.14,4-3.64,4.25-6.16.28-3.07-3.11-5-6-6.15,1.51-3.46,5.6-5.83,5.6-9.61a9.72,9.72,0,0,0-1.28-4.12c-1.29-2.67-2.59-5.34-3.88-8a5.13,5.13,0,0,1-.76-3.51c.37-1.41,1.8-2.21,3.09-2.85l4.19-2.11a3.15,3.15,0,0,1,1.84-.47,2.78,2.78,0,0,1,1.6,1.21,14.93,14.93,0,0,1,3,10.52A60.1,60.1,0,0,0,183,181c-.52,2.86.66,6-.22,8.71" style="fill:#f5f5f5;opacity:0.4;isolation:isolate"></path><path d="M284.17,206.35a5.6,5.6,0,0,1,2.49,4.06,25.67,25.67,0,0,1-.34,3,2.75,2.75,0,0,0,1.11,2.66c1.13.62,2.5-.16,3.55-.91a4.21,4.21,0,0,0,2-2.34,19.72,19.72,0,0,0-.05-2.3c.14-1.51,1.48-2.58,2.55-3.66s2-2.78,1.13-4c-.55-.84-1.68-1.13-2.27-1.93-1.46-2,1.17-4.71,0-6.49-1.43-2.12-5-1-6.93,0s-3.42,3.09-4.84,4.79C278.53,204,279.93,203.3,284.17,206.35Z" style="fill:#f5f5f5;opacity:0.4;isolation:isolate"></path><path d="M337,132.11c-23.5-20.39-56.3-30.87-87.09-31.09H247.3c-4.06,4.58-6.22,13.26,1.83,14.88,0,.88-.5,1.1-.94,1.8-.7,1.1.46,2.49,1.67,3,3.95,1.63,8.75,1.54,8.12,6.89-.75,6.39-3.76,2.32-7.08,4.64a6.9,6.9,0,0,0-1.14,1.32c-1.41,1.62-3.89,1.6-6,1.46a2.44,2.44,0,0,0-1.63-3.2,4,4,0,0,1-1.48-.38c-.89-.65-.21-2.18.81-2.6s2.19-.25,3.26-.55,2-1.57,1.38-2.47a1.88,1.88,0,0,0-1.18-.65,6,6,0,0,0-5.38,1.49,2.43,2.43,0,0,0-4.69.46c-.22,1.55.85,3.68-.54,4.41a3.47,3.47,0,0,1,3.47,1.09c3.26,3.84,1.32,13.18,9.9,11.61a32.69,32.69,0,0,1,4.1-.91c1.4-.07,3,.58,3.38,1.93,1.8-2.62,6.43-2.06,8-4.84a3.39,3.39,0,0,0-.75-4.08,1.52,1.52,0,0,1-.5-.54c-.19-.47.24-1,.3-1.46.12-.87-.82-1.55-.94-2.42-.16-1.22,1.25-2,2.44-2.3s2.64-.75,2.89-2c.08-.41,0-.84.07-1.25a2.1,2.1,0,0,1,1.85-1.49,6.09,6.09,0,0,1,2.49.37c.55.47.3,1.4-.19,1.93a13.89,13.89,0,0,0-1.58,1.48c-.23.34.89,7.62.34,7.43,2.6.9,8.16,1,7,4.92-.4,1.37-1.2,2.8-.69,4.14-1.83-.51-3.67-1-5.51-1.48-.45.59.29,1.4,1,1.58s1.57.16,2.06.71a2.38,2.38,0,0,1,.42,1.48c.09,1.69.19,3.38.28,5.07.11,1.84.35,3.94,1.87,5,1.73,1.17,4.17.24,5.63-1.27.35-.36.73-.78,1.23-.78a1.91,1.91,0,0,1,1.16.64,7.6,7.6,0,0,0,6.61,2c2.32-.55,4.25-2.9,3.86-5.26-.15-.9-.55-2,.16-2.61.41-.35,1.12-.39,1.3-.9s-.58-1.1-1.13-1.51a2.72,2.72,0,0,1-.79-3.3c.28-.56,5.35-2.65,6.14-2.26,1.81.88,1.49,5.72,1.71,7.59a2.75,2.75,0,0,0,.81,2c.91.67,2.22,0,2.93-.92s1.22-2,2.25-2.51a4.65,4.65,0,0,1,1.93-.33c1.34,0,2.84,0,3.78.93.45.44.7,1,1.14,1.49,1,1,2.68,1,4,.48s2.55-1.31,3.93-1.68c2.94-.79,6.29.6,9-.79,1.31-.67,2.25-2.54,1.22-3.58s-2.83-.74-3.07-2,2.7-2.91,3.21-4c.41-.83-.48-2.36.46-3.89C334.26,133.83,336.12,133.45,337,132.11Z" style="fill:#f5f5f5;opacity:0.4;isolation:isolate"></path><path d="M164.45,333.26c-1.67-1.12-3.54-1.77-4.12-4.06-.79-3.13.89-4.46,4-3.3a1.37,1.37,0,0,0,.86.12c.9-.29.26-1.62-.32-2.36a6.31,6.31,0,0,1-.75-6.06c.16-.47-8.59-.67-9.56-.15-3.38,1.85-1.17,9.05-5.09,7.84-.27-2.74-.12-5.57-.13-8.34l-4-.16c1,0,.4-5.06.06-5.62-1.31-2.17-5.37-1.25-5-5.34.46-5.19,10.5-6.24,9.3-.29a26.06,26.06,0,0,0,9.9,1.33c.07,1.06.14,2.12.2,3.17a2.89,2.89,0,0,0,2.59.2,8,8,0,0,0-.57-8.75c1.14-1.75-.25-4-1.6-5.63,3.68-2.69,2.62-9.52-1.69-11s-9.29,3.35-8,7.71a10.2,10.2,0,0,0-5.69,2.6,13.3,13.3,0,0,0-9.72-12c-2.69-.68-5.88-.65-7.71-2.73-.82-.93-1.22-2.15-2-3.12-1.72-2.18-4.79-2.63-7.57-2.78-1.85-.1-3.71-.13-5.57-.1A140.58,140.58,0,0,0,164.73,354a5.59,5.59,0,0,0,2.85-.42c1.57-.85,2.06-2.83,2.38-4.6,1.27-6.85.56-11.12-5-15.38Z" style="fill:#f5f5f5;opacity:0.4;isolation:isolate"></path><path d="M291,343.82c2.64.25,3.82,3.49,4.36,6.14.8,4,1.61,7.93,2.4,11.9-4.83,2.27-4.43,8.16-2.18,12.16a140.52,140.52,0,0,0,93.8-131.53c0-4.67-.16-9.27-.57-13.81a2.53,2.53,0,0,0-.36-.2c-3.83-1.81-6.85,1.46-9.74,3.31-.65.42-9.07,4.5-9.18,3.37a37.07,37.07,0,0,1-.58,11,1.15,1.15,0,0,1-.37.73c-.54.37-1.16-.38-1.36-1-.52-1.62-.73-3.32-1.34-4.91a5.76,5.76,0,0,0-3.34-3.62c-1.63-.51-3.4.09-5.09-.15a7,7,0,0,1-4.83-3.62,23.13,23.13,0,0,1-2-5.67c-2,4.41-7,1.69-10,5.25-.95,1.14-2.1,2.79-3.48,2.24s-1.46-2.77-2.86-2.94c-1-.12-1.7.95-1.85,1.93a10.52,10.52,0,0,1-.4,2.93,2.58,2.58,0,0,1-3.53,1.08c-1.07-.64-1.48-2-2.15-3s-2.1-2-3.11-1.21a2,2,0,0,0-.55.68c-1,1.88.13,4.16,1.44,5.82s2.91,3.33,3.05,5.44a1.76,1.76,0,0,1-2.43-.51,3,3,0,0,0-.51-.82c-.54-.46-1.34,0-1.93.36a12.68,12.68,0,0,1-9.55,1.69L312,234c-1,0-1.55-.1-1.92-1.09-3.21,3.12-6.15,6.49-9.69,9.31a2.58,2.58,0,0,0-1,1.23,8,8,0,0,0,0,1.69c-.11,1.87-2.62,2.36-4.49,2.31-.55.3-.23,1.19.31,1.49s1.22.33,1.71.72a2.36,2.36,0,0,1,.48,2.57,6.18,6.18,0,0,1-7.74,3.86,1.83,1.83,0,0,1-.94-.64c-.47-.7,0-1.62.06-2.46.34-3.32-3.24-2.55-4.89-1.63-2.24,1.24-3.49,4.54-3.91,6.9-.49,2.76-2.57,21.06-8.68,18.53a2.76,2.76,0,0,1-1.27-1.3c-.89-1.67-.83-3.67-1.47-5.43s-2.66-3.38-4.3-2.46c-.66.36-1.08,1.05-1.71,1.47-1.75,1.15-4.25-.24-6.16.64a17.43,17.43,0,0,0-2.29,1.76c-.8.55-2,.72-2.61-.06s.11-2.21-.41-3.16-2.23-.79-2.8.19a2.94,2.94,0,0,0,.48,3.17,3.85,3.85,0,0,1,1,1.48c.22,1-.77,1.9-1.65,2.51L244,278.5a2.47,2.47,0,0,0,2,1.9c.93.26,1.93.25,2.85.56,4.46,1.49,4.45,8.1,10.29,6.8a2.82,2.82,0,0,1,3.27-3.11c2.14.52,3.53,3.58,5.65,3,.74-.21,1.3-.86,2.05-1,2.07-.49,3.08,2.68,3.66,4,1.92,4.48-1.07,5-.95,9,.05,1.82,1.41,3.37,1.74,5.17s-.27,3.37,0,5c.61,4.59,6.68,1.81,9.37,1.28-1.46,2.6.72,5.76,3.09,7.56,3.64,2.77,3,2.54,3.47,6.53a2.91,2.91,0,0,0,1.73,2.48c1.74.62,3.44-1.1,5.28-1.28.88-.09,1.78.19,2.65,0,2.3-.39,3.1-3.2,4.59-5a6.35,6.35,0,0,1,5.45-2.19,13.19,13.19,0,0,1,0,3.55l-3.86,2.39a8.77,8.77,0,0,0-3,2.58,7,7,0,0,1-1.21,1.88c-1.13,1-2.83.38-4.32.28-3.6-.23-9.46,2-12.93,3.15-3.7,1.22-5,3.84-8.41,5a1.09,1.09,0,0,0-.38,1.6,2.39,2.39,0,0,0,1.64.88,6.63,6.63,0,0,0,4.28-.71c-1.7.93,3.26,5,4.16,5.23,1.47.33,3.45-.78,4.95-.85,3.71-.19,5.86.55,3.42,4.58-.93,1.55-2,3.51-1,5a2.31,2.31,0,0,1,2.71,1.09,4.85,4.85,0,0,1,.47,3.1,3.13,3.13,0,0,1-.77,2,4.83,4.83,0,0,0-.86.76c-.69,1,.73,2.17,1.9,2.62" style="fill:#f5f5f5;isolation:isolate"></path><path d="M168,182.9c1.15-.86,2.79-.16,4,.63s2.61,1.73,4,1.24c0-1.67.05-3.35.08-5a1.16,1.16,0,0,1,.25-.88,1.23,1.23,0,0,1,.91-.21l3.23.15c.9,1-1.6,2.19-1.25,3.48.16.57.8.82,1.32,1.1,4.44,2.38,1.62,7.33-.39,10-2.33,3.12-2.17,7.38-1.92,11.27.09,1.38.26,2.93,1.32,3.84s2.57.83,3.89,1.22c2.3.67,3.93,2.7,6.07,3.76,7.51,3.69,12.46-4.35,10-10.68-1.27-3.28-1.81-2.66-1.09-6.17.31-1.46-.18-3.18,1.34-4.18a2.68,2.68,0,0,1,4.07,2c.13,1.93.57,3.76-.22,5.57,2.22-.82,4.87-.3,7.29-.3a3.19,3.19,0,0,0,4.5,3.07c-.06-1.1.23-2.61,1.33-2.6a2,2,0,0,1,.9.32c1.15.68,2.17,1.59,3.38,2.15,1.87.87,7.23.46,8.06,3,.15.44.15.92.32,1.36a2.08,2.08,0,0,0,2.5,1.07,2.8,2.8,0,0,0,1.81-2.18c.12-.65.05-1.33.22-2,.91-3.4,4.4-.74,6-1.65.75-.44,3.83-6.24,3.89-6.94,1.49,1.84,3.71,3.4,6.17,3.29,2.7-.13,3.86-2.28,4.46-4.9.64-2.77.68-6.07,1.28-8.08.33-1.08.61-2.39-.15-3.22-1-1-3-.64-3.68-1.87a3.94,3.94,0,0,1-.32-1.29,4.94,4.94,0,0,0-5.87-3.8c-.83-.54-.85-1.72-.9-2.71s-.47-2.22-1.46-2.29-1.65,1.41-1.63,2.55a12.47,12.47,0,0,0,.54,3.43,4.1,4.1,0,0,1,.29,2.54,3.22,3.22,0,0,1-1.3,1.44,7.55,7.55,0,0,1-4.33,1.75c-1.58,0-3.24-1.17-3.3-2.75a6.74,6.74,0,0,0,0-1.27c-.25-1.06-1.61-1.42-2.69-1.28a9.66,9.66,0,0,1-3.22.38c-1.07-.21-2-1.61-1.2-2.39-1.44-.51-3.5-.76-4.06.66a4.12,4.12,0,0,0-.14,1.45c-.06,3-3.81,7.37-6.37,4.22-1.68-2.08,1.22-5.85-1.8-7.56-1.44-.81-3.4-.09-4.83-.94-.45-.53.32-1.24,1-1.42a6.43,6.43,0,0,1,6,1.64c.85-1.75-.47-4.33,1-5.59s4.31.22,5.42-1.37a3.15,3.15,0,0,0,.4-1.58c.2-2.73-.64-7.72,3.2-8.18a5.76,5.76,0,0,0,1.39-.19c1.33-.52,1.32-2.38,1.07-3.78-1.44-.62-3,.45-4.38,1.18s-3.6.86-4.07-.64c-.34-1.07.5-2.42-.21-3.29-.33-.4-.91-.56-1.19-1-.68-1.07,1-2.14,1.26-3.37.4-1.69-1.87-2.78-3.6-2.65s-3.68.71-5.09-.32c-.44-.33-.77-.79-1.18-1.15-1.27-1.13-3.13-1.23-4.82-1.28-2.72-.07,3.45-11.22,3.51-11.9.47-5.17-4.83-7.92-7.87-11.21a31.18,31.18,0,0,1-3.91-5.84c-45.68,18.08-79.46,60-87.12,108.58a46.36,46.36,0,0,0-.77,6.6c3.21-.91,8.2-3.31,11.45-1.36,4.13,2.48,1.14,8.61,5.91,10.43,1.18,0,.84-2,1.52-2.92a4,4,0,0,1,1.66-1c.59-.3,1.15-.93.92-1.54,1-.81,2.45.22,3.41,1.12a8.45,8.45,0,0,0,3.92,2.33c3.14.67,6.05-1.59,8.88-3.11a42.18,42.18,0,0,1,7.43-2.84c-1.23.07-1.85-1.63-1.38-2.76a12.51,12.51,0,0,1,2.33-2.83c1.33-1.62.3-3.5,1.42-5.22,1.37-2.14,4-3.64,4.25-6.16.28-3.07-3.11-5-6-6.15,1.51-3.46,5.6-5.83,5.6-9.61a9.72,9.72,0,0,0-1.28-4.12c-1.29-2.67-2.59-5.34-3.88-8a5.13,5.13,0,0,1-.76-3.51c.37-1.41,1.8-2.21,3.09-2.85l4.19-2.11a3.15,3.15,0,0,1,1.84-.47,2.78,2.78,0,0,1,1.6,1.21,14.93,14.93,0,0,1,3,10.52A60.1,60.1,0,0,0,183,181c-.52,2.86.66,6-.22,8.71" style="fill:#f5f5f5;isolation:isolate"></path><path d="M284.17,206.35a5.6,5.6,0,0,1,2.49,4.06,25.67,25.67,0,0,1-.34,3,2.75,2.75,0,0,0,1.11,2.66c1.13.62,2.5-.16,3.55-.91a4.21,4.21,0,0,0,2-2.34,19.72,19.72,0,0,0-.05-2.3c.14-1.51,1.48-2.58,2.55-3.66s2-2.78,1.13-4c-.55-.84-1.68-1.13-2.27-1.93-1.46-2,1.17-4.71,0-6.49-1.43-2.12-5-1-6.93,0s-3.42,3.09-4.84,4.79C278.53,204,279.93,203.3,284.17,206.35Z" style="fill:#f5f5f5;isolation:isolate"></path><path d="M337,132.11c-23.5-20.39-56.3-30.87-87.09-31.09H247.3c-4.06,4.58-6.22,13.26,1.83,14.88,0,.88-.5,1.1-.94,1.8-.7,1.1.46,2.49,1.67,3,3.95,1.63,8.75,1.54,8.12,6.89-.75,6.39-3.76,2.32-7.08,4.64a6.9,6.9,0,0,0-1.14,1.32c-1.41,1.62-3.89,1.6-6,1.46a2.44,2.44,0,0,0-1.63-3.2,4,4,0,0,1-1.48-.38c-.89-.65-.21-2.18.81-2.6s2.19-.25,3.26-.55,2-1.57,1.38-2.47a1.88,1.88,0,0,0-1.18-.65,6,6,0,0,0-5.38,1.49,2.43,2.43,0,0,0-4.69.46c-.22,1.55.85,3.68-.54,4.41a3.47,3.47,0,0,1,3.47,1.09c3.26,3.84,1.32,13.18,9.9,11.61a32.69,32.69,0,0,1,4.1-.91c1.4-.07,3,.58,3.38,1.93,1.8-2.62,6.43-2.06,8-4.84a3.39,3.39,0,0,0-.75-4.08,1.52,1.52,0,0,1-.5-.54c-.19-.47.24-1,.3-1.46.12-.87-.82-1.55-.94-2.42-.16-1.22,1.25-2,2.44-2.3s2.64-.75,2.89-2c.08-.41,0-.84.07-1.25a2.1,2.1,0,0,1,1.85-1.49,6.09,6.09,0,0,1,2.49.37c.55.47.3,1.4-.19,1.93a13.89,13.89,0,0,0-1.58,1.48c-.23.34.89,7.62.34,7.43,2.6.9,8.16,1,7,4.92-.4,1.37-1.2,2.8-.69,4.14-1.83-.51-3.67-1-5.51-1.48-.45.59.29,1.4,1,1.58s1.57.16,2.06.71a2.38,2.38,0,0,1,.42,1.48c.09,1.69.19,3.38.28,5.07.11,1.84.35,3.94,1.87,5,1.73,1.17,4.17.24,5.63-1.27.35-.36.73-.78,1.23-.78a1.91,1.91,0,0,1,1.16.64,7.6,7.6,0,0,0,6.61,2c2.32-.55,4.25-2.9,3.86-5.26-.15-.9-.55-2,.16-2.61.41-.35,1.12-.39,1.3-.9s-.58-1.1-1.13-1.51a2.72,2.72,0,0,1-.79-3.3c.28-.56,5.35-2.65,6.14-2.26,1.81.88,1.49,5.72,1.71,7.59a2.75,2.75,0,0,0,.81,2c.91.67,2.22,0,2.93-.92s1.22-2,2.25-2.51a4.65,4.65,0,0,1,1.93-.33c1.34,0,2.84,0,3.78.93.45.44.7,1,1.14,1.49,1,1,2.68,1,4,.48s2.55-1.31,3.93-1.68c2.94-.79,6.29.6,9-.79,1.31-.67,2.25-2.54,1.22-3.58s-2.83-.74-3.07-2,2.7-2.91,3.21-4c.41-.83-.48-2.36.46-3.89C334.26,133.83,336.12,133.45,337,132.11Z" style="fill:#f5f5f5;isolation:isolate"></path><path d="M164.45,333.26c-1.67-1.12-3.54-1.77-4.12-4.06-.79-3.13.89-4.46,4-3.3a1.37,1.37,0,0,0,.86.12c.9-.29.26-1.62-.32-2.36a6.31,6.31,0,0,1-.75-6.06c.16-.47-8.59-.67-9.56-.15-3.38,1.85-1.17,9.05-5.09,7.84-.27-2.74-.12-5.57-.13-8.34l-4-.16c1,0,.4-5.06.06-5.62-1.31-2.17-5.37-1.25-5-5.34.46-5.19,10.5-6.24,9.3-.29a26.06,26.06,0,0,0,9.9,1.33c.07,1.06.14,2.12.2,3.17a2.89,2.89,0,0,0,2.59.2,8,8,0,0,0-.57-8.75c1.14-1.75-.25-4-1.6-5.63,3.68-2.69,2.62-9.52-1.69-11s-9.29,3.35-8,7.71a10.2,10.2,0,0,0-5.69,2.6,13.3,13.3,0,0,0-9.72-12c-2.69-.68-5.88-.65-7.71-2.73-.82-.93-1.22-2.15-2-3.12-1.72-2.18-4.79-2.63-7.57-2.78-1.85-.1-3.71-.13-5.57-.1A140.58,140.58,0,0,0,164.73,354a5.59,5.59,0,0,0,2.85-.42c1.57-.85,2.06-2.83,2.38-4.6,1.27-6.85.56-11.12-5-15.38Z" style="fill:#f5f5f5;isolation:isolate"></path><path d="M83.25,166.8A8.12,8.12,0,0,1,93.7,159a17.21,17.21,0,0,1,17-19.69,17.38,17.38,0,0,1,3.17.3,15,15,0,0,1,27.87,7.6l.25,0a13.86,13.86,0,0,1,0,27.71H91.13v0A8.11,8.11,0,0,1,83.25,166.8Z" style="fill:#fafafa"></path><path d="M358.22,192.83a7,7,0,0,1,7-7,6.89,6.89,0,0,1,2,.29A14.94,14.94,0,0,1,367,184a14.75,14.75,0,0,1,14.75-14.75,15.09,15.09,0,0,1,2.71.25,12.9,12.9,0,0,1,23.91,6.52h.21a11.88,11.88,0,0,1,0,23.76H365A7,7,0,0,1,358.22,192.83Z" style="fill:#fafafa"></path><path d="M200.11,256.28a8.12,8.12,0,0,1,10.45-7.78,17,17,0,0,1-.18-2.49,17.19,17.19,0,0,1,17.19-17.19,17.47,17.47,0,0,1,3.17.29,15,15,0,0,1,27.87,7.6h.25a13.85,13.85,0,0,1,0,27.7H208A8.11,8.11,0,0,1,200.11,256.28Z" style="fill:#fafafa"></path><path d="M74.74,331.71a5.63,5.63,0,0,1,5.62-5.63,5.72,5.72,0,0,1,1.62.24,12.25,12.25,0,0,1-.13-1.73,11.93,11.93,0,0,1,11.93-11.92,11.29,11.29,0,0,1,2.19.21,10.42,10.42,0,0,1,19.32,5.26h.17a9.61,9.61,0,1,1,0,19.21H80.21A5.61,5.61,0,0,1,74.74,331.71Z" style="fill:#fafafa"></path><path d="M378.18,335.77a5.26,5.26,0,0,1,5.26-5.26,5.42,5.42,0,0,1,1.52.22,10.84,10.84,0,0,1-.12-1.62A11.15,11.15,0,0,1,396,318a11.49,11.49,0,0,1,2.05.19,9.75,9.75,0,0,1,18.08,4.93h.16a9,9,0,0,1,0,18h-33A5.26,5.26,0,0,1,378.18,335.77Z" style="fill:#fafafa"></path><path d="M418.39,291a1,1,0,0,1-.34-.06,1,1,0,0,1-.56-1.24c6.34-16.72-5-39.09-32-63-27.19-24.1-66.93-46.77-111.88-63.81-92.54-35.08-178.56-35.27-191.77-.43a1,1,0,0,1-1.24.55,1,1,0,0,1-.55-1.23c6.64-17.52,30.6-27.18,67.48-27.2h.14c36.54,0,81.5,9.42,126.62,26.52S359.42,201,386.78,225.23c27.6,24.47,39.14,47.59,32.5,65.1A1,1,0,0,1,418.39,291Z" style="fill:#e0e0e0"></path><path d="M142.33,376.81a.93.93,0,0,1-.57-.19c-15-11.14-17.85-36.83-7.86-72.33,9.9-35.21,31.18-76,59.92-114.8s61.52-71.09,92.29-90.84c31-19.93,56.42-24.76,71.48-13.61a1,1,0,0,1-1.14,1.54C326.5,64.41,254.23,111.09,195.36,190.63S113,352.91,142.9,375.08a1,1,0,0,1-.57,1.73Z" style="fill:#e0e0e0"></path></g><g id="freepik--Shadow--inject-5"><ellipse id="freepik--path--inject-5" cx="250" cy="416.24" rx="193.89" ry="11.32" style="fill:#f5f5f5"></ellipse></g><g id="freepik--Book--inject-5"><path d="M272.19,164.78s-88.46-13.79-135.42-7V344.74s98.32-8.5,130.17,2.23l5.25-3.64Z" style="fill:#263238"></path><path d="M272.19,164.78s-88.46-13.79-135.42-7V344.74s98.32-8.5,130.17,2.23l5.25-3.64Z" style="fill:#fff;opacity:0.6000000000000001"></path><path d="M272.19,164.78s88.45-13.79,135.41-7V344.74s-98.32-8.5-130.17,2.23l-5.24-3.64Z" style="fill:#263238"></path><path d="M272.19,164.78s88.45-13.79,135.41-7V344.74s-98.32-8.5-130.17,2.23l-5.24-3.64Z" style="fill:#fff;opacity:0.6000000000000001"></path><path d="M272.19,343.93V165.38s-48-26.52-131.35-10.27V340.72S212.71,328.7,272.19,343.93Z" style="fill:#3894A3"></path><path d="M272.19,343.93V165.38s-48-26.52-131.35-10.27V340.72S212.71,328.7,272.19,343.93Z" style="fill:#fff;opacity:0.8"></path><path d="M272.19,343.93V165.38S225,136.62,143.06,149v185.6S213.71,325.9,272.19,343.93Z" style="fill:#3894A3"></path><path d="M272.19,343.93V165.38S225,136.62,143.06,149v185.6S213.71,325.9,272.19,343.93Z" style="fill:#fff;opacity:0.7000000000000001"></path><path d="M272.19,343.86V165.3S225.35,135,145.39,144.68v185.6S215.15,323.93,272.19,343.86Z" style="fill:#3894A3"></path><path d="M272.19,343.86V165.3S225.35,135,145.39,144.68v185.6S215.15,323.93,272.19,343.86Z" style="fill:#fff;opacity:0.8"></path><path d="M272.19,343.33V164.78S226.61,133.54,148,141.55v185.6S216.1,322.22,272.19,343.33Z" style="fill:#3894A3"></path><path d="M272.19,343.33V164.78S226.61,133.54,148,141.55v185.6S216.1,322.22,272.19,343.33Z" style="fill:#fff;opacity:0.7000000000000001"></path><path d="M272.19,343.93V165.38s48-26.52,131.34-10.27V340.72S331.67,328.7,272.19,343.93Z" style="fill:#3894A3"></path><path d="M272.19,343.93V165.38s48-26.52,131.34-10.27V340.72S331.67,328.7,272.19,343.93Z" style="fill:#fff;opacity:0.7000000000000001"></path><path d="M272.19,343.93V165.38S319.35,136.62,401.32,149v185.6S330.66,325.9,272.19,343.93Z" style="fill:#3894A3"></path><path d="M272.19,343.93V165.38S319.35,136.62,401.32,149v185.6S330.66,325.9,272.19,343.93Z" style="fill:#fff;opacity:0.8"></path><path d="M272.19,343.86V165.3S319,135,399,144.68v185.6S329.23,323.93,272.19,343.86Z" style="fill:#3894A3"></path><path d="M272.19,343.86V165.3S319,135,399,144.68v185.6S329.23,323.93,272.19,343.86Z" style="fill:#fff;opacity:0.7000000000000001"></path><path d="M272.19,343.33V164.78s45.57-31.24,124.19-23.23v185.6S328.28,322.22,272.19,343.33Z" style="fill:#3894A3"></path><path d="M272.19,343.33V164.78s45.57-31.24,124.19-23.23v185.6S328.28,322.22,272.19,343.33Z" style="fill:#fff;opacity:0.8"></path><path d="M309.73,276.22a16.37,16.37,0,1,0-23.15,23.16L298.16,311l11.57-11.58A16.37,16.37,0,0,0,309.73,276.22Zm-6.22,16.93a7.58,7.58,0,1,1,0-10.7A7.59,7.59,0,0,1,303.51,293.15Z" style="fill:#3894A3"></path><path d="M292.8,282.45a7.57,7.57,0,0,0,5.36,12.92V311l-11.58-11.58a16.38,16.38,0,0,1,11.58-28v8.8A7.57,7.57,0,0,0,292.8,282.45Z" style="fill:#fff;opacity:0.30000000000000004"></path><path d="M379.88,161.7a17.3,17.3,0,1,0-24.46,24.47l12.23,12.23,12.23-12.23A17.3,17.3,0,0,0,379.88,161.7Zm-6.57,17.89a8,8,0,1,1,0-11.31A8,8,0,0,1,373.31,179.59Z" style="fill:#3894A3"></path><path d="M362,168.28a8,8,0,0,0,5.66,13.65V198.4l-12.23-12.23a17.31,17.31,0,0,1,12.23-29.54v9.29A8,8,0,0,0,362,168.28Z" style="fill:#fff;opacity:0.30000000000000004"></path><path d="M329.57,317.16h-.92a.49.49,0,0,1,0-1h1.94a.46.46,0,0,1,.49.48.49.49,0,0,1-.48.5Zm-5.78-.19h0l-1.95-.15a.48.48,0,1,1,.08-1l1.93.14a.49.49,0,0,1,0,1Zm11.66,0a.49.49,0,0,1,0-1l1.92-.18a.49.49,0,0,1,.1,1l-1.95.18ZM317,316.31H317L315,316a.49.49,0,0,1-.41-.55.5.5,0,0,1,.55-.42c.64.1,1.28.18,1.92.27a.48.48,0,0,1,.42.54A.49.49,0,0,1,317,316.31Zm25.18-.25a.48.48,0,0,1-.09-1c.63-.12,1.26-.24,1.89-.38a.49.49,0,1,1,.21.95l-1.92.39Zm-31.9-.8h-.09l-1.92-.36a.48.48,0,0,1-.38-.57.5.5,0,0,1,.57-.39c.63.13,1.26.25,1.9.36a.49.49,0,0,1-.08,1Zm38.5-.83a.49.49,0,0,1-.14-.95c.61-.19,1.22-.4,1.82-.61a.48.48,0,0,1,.62.29.49.49,0,0,1-.29.62l-1.86.63Zm-45.18-.52h-.1l-1.9-.44a.48.48,0,1,1,.22-.94l1.89.43a.48.48,0,0,1,.37.58A.49.49,0,0,1,303.62,313.91Zm51.52-2a.48.48,0,0,1-.44-.28.47.47,0,0,1,.23-.64c.58-.28,1.16-.56,1.73-.86a.48.48,0,0,1,.65.21.49.49,0,0,1-.21.66c-.58.3-1.17.59-1.76.87A.45.45,0,0,1,355.14,312Zm5.93-3.32a.48.48,0,0,1-.4-.21.49.49,0,0,1,.14-.68c.53-.35,1.06-.72,1.58-1.09a.48.48,0,0,1,.57.78c-.53.39-1.07.76-1.62,1.12A.43.43,0,0,1,361.07,308.64Zm5.37-4.17a.48.48,0,0,1-.32-.84c.47-.43.94-.87,1.4-1.32a.49.49,0,0,1,.69,0,.5.5,0,0,1,0,.69c-.47.46-.95.91-1.43,1.35A.5.5,0,0,1,366.44,304.47Zm4.71-4.91a.45.45,0,0,1-.31-.11.48.48,0,0,1-.06-.68c.41-.5.81-1,1.2-1.51a.49.49,0,0,1,.69-.08.48.48,0,0,1,.08.68c-.4.52-.81,1-1.22,1.53A.52.52,0,0,1,371.15,299.56Zm4-5.5a.48.48,0,0,1-.26-.07.5.5,0,0,1-.15-.67c.34-.55.68-1.1,1-1.65a.5.5,0,0,1,.67-.18.49.49,0,0,1,.17.67q-.49.84-1,1.68A.49.49,0,0,1,375.15,294.06Zm3.26-6a.51.51,0,0,1-.2,0,.5.5,0,0,1-.24-.65l.28-.6.51-1.16a.48.48,0,1,1,.89.38l-.51,1.18-.29.61A.47.47,0,0,1,378.41,288.09Zm2.48-6.33-.14,0a.49.49,0,0,1-.32-.61c.2-.62.38-1.23.55-1.85a.49.49,0,1,1,.94.26c-.18.63-.36,1.26-.56,1.88A.49.49,0,0,1,380.89,281.76Zm1.61-6.61h-.08a.49.49,0,0,1-.4-.56c.11-.63.21-1.26.28-1.9a.49.49,0,0,1,.55-.42.49.49,0,0,1,.42.54c-.08.65-.18,1.3-.29,1.95A.48.48,0,0,1,382.5,275.15Zm.62-6.77h0a.48.48,0,0,1-.48-.49v-.41c0-.51,0-1,0-1.51a.48.48,0,0,1,.46-.51.5.5,0,0,1,.51.47c0,.52,0,1,0,1.55v.42A.48.48,0,0,1,383.12,268.38Zm-.52-6.78a.49.49,0,0,1-.48-.4q-.17-1-.36-1.89a.48.48,0,0,1,.37-.58.49.49,0,0,1,.58.37c.14.64.26,1.28.37,1.94a.48.48,0,0,1-.4.55ZM380.85,255a.49.49,0,0,1-.46-.32c-.22-.6-.47-1.19-.73-1.76a.5.5,0,0,1,.24-.65.49.49,0,0,1,.65.25c.27.59.52,1.2.75,1.82a.49.49,0,0,1-.28.63A.51.51,0,0,1,380.85,255Zm-3.1-6a.49.49,0,0,1-.4-.22c-.36-.53-.73-1.05-1.12-1.55a.49.49,0,0,1,.09-.68.48.48,0,0,1,.68.08c.41.53.8,1.07,1.16,1.61a.48.48,0,0,1-.14.67A.44.44,0,0,1,377.75,249ZM315,248.61l-1,0a.49.49,0,1,1,0-1c.63,0,1.27,0,1.91,0a.52.52,0,0,1,.5.47.48.48,0,0,1-.47.5Zm5.75-.6a.48.48,0,0,1-.09-1q.93-.2,1.86-.45a.49.49,0,0,1,.59.35.48.48,0,0,1-.34.59c-.63.17-1.27.33-1.92.46Zm-11.58,0h-.1c-.65-.13-1.29-.29-1.92-.46a.49.49,0,0,1,.26-.94c.61.17,1.23.32,1.85.45a.47.47,0,0,1,.38.57A.48.48,0,0,1,309.21,248Zm18.07-2a.49.49,0,0,1-.45-.3.49.49,0,0,1,.27-.64c.6-.24,1.19-.49,1.78-.75a.5.5,0,0,1,.64.25.48.48,0,0,1-.25.64c-.6.27-1.2.52-1.81.77A.52.52,0,0,1,327.28,246Zm-24.52-.12a.41.41,0,0,1-.21-.05c-.6-.28-1.19-.58-1.76-.9a.49.49,0,0,1-.18-.66.48.48,0,0,1,.66-.19c.55.31,1.12.6,1.7.87a.49.49,0,0,1,.23.65A.48.48,0,0,1,302.76,245.87Zm70.56-2a.5.5,0,0,1-.33-.12c-.47-.43-1-.84-1.46-1.23a.48.48,0,0,1-.09-.68.49.49,0,0,1,.68-.09c.53.41,1,.84,1.52,1.27a.49.49,0,0,1,0,.69A.48.48,0,0,1,373.32,243.86Zm-39.85-.7a.49.49,0,0,1-.22-.93l1.74-.86a.49.49,0,1,1,.44.87l-1.74.86A.46.46,0,0,1,333.47,243.16ZM297,242.25a.51.51,0,0,1-.31-.11c-.51-.42-1-.86-1.48-1.32a.49.49,0,0,1,0-.69.48.48,0,0,1,.68,0c.46.44.94.86,1.43,1.27a.48.48,0,0,1,.07.68A.49.49,0,0,1,297,242.25Zm42.56-2.1a.5.5,0,0,1-.45-.29.49.49,0,0,1,.24-.64c.61-.28,1.21-.54,1.81-.78a.48.48,0,0,1,.63.27.49.49,0,0,1-.27.64c-.59.23-1.17.48-1.76.75A.53.53,0,0,1,339.58,240.15Zm28.16-.16a.48.48,0,0,1-.23-.05c-.56-.29-1.14-.57-1.72-.82a.48.48,0,0,1-.25-.64.48.48,0,0,1,.64-.25c.6.26,1.2.54,1.78.85a.48.48,0,0,1-.22.91ZM346,237.87a.49.49,0,0,1-.12-1c.64-.16,1.28-.31,1.92-.43a.47.47,0,0,1,.57.38.49.49,0,0,1-.38.57c-.62.12-1.25.27-1.87.42A.25.25,0,0,1,346,237.87Zm15.4-.25h-.11c-.62-.15-1.25-.28-1.88-.39a.47.47,0,0,1-.39-.56.49.49,0,0,1,.56-.4c.64.12,1.29.25,1.93.4a.49.49,0,0,1,.36.59A.48.48,0,0,1,361.38,237.62Zm-69-.34a.47.47,0,0,1-.39-.2c-.39-.54-.75-1.08-1.1-1.64a.49.49,0,0,1,.83-.52c.33.54.69,1.08,1.06,1.6a.49.49,0,0,1-.11.67A.52.52,0,0,1,292.39,237.28Zm60.3-.44a.49.49,0,0,1,0-1c.55,0,1.1,0,1.65,0h.32a.49.49,0,0,1,.49.49.5.5,0,0,1-.5.48h-.31c-.53,0-1.07,0-1.6,0Zm-63.6-5.49a.49.49,0,0,1-.45-.3c-.26-.6-.49-1.22-.71-1.84a.48.48,0,1,1,.91-.32c.22.6.45,1.2.7,1.78a.5.5,0,0,1-.26.64A.43.43,0,0,1,289.09,231.35Zm-2-6.5a.48.48,0,0,1-.48-.39c-.13-.64-.24-1.29-.34-1.94a.49.49,0,0,1,.41-.55.48.48,0,0,1,.55.41c.1.63.21,1.26.34,1.89a.49.49,0,0,1-.38.57Zm-.74-6.75a.5.5,0,0,1-.49-.48v-.74c0-.41,0-.82,0-1.23a.49.49,0,1,1,1,0c0,.4,0,.8,0,1.2,0,.24,0,.48,0,.72a.5.5,0,0,1-.48.5Zm66.9-.11a.53.53,0,0,1-.53-.49.45.45,0,0,1,.44-.48h.09c.61,0,1.22,0,1.82-.07a.48.48,0,0,1,.52.45.49.49,0,0,1-.45.52C354.52,218,353.88,218,353.25,218Zm-4.92-.51h-.1l-.19,0c-.58-.13-1.16-.29-1.73-.46a.49.49,0,1,1,.28-.93c.55.17,1.11.31,1.67.44l.17,0a.48.48,0,0,1-.1,1Zm11.55-.44a.48.48,0,0,1-.14-.95c.61-.19,1.21-.4,1.78-.64a.49.49,0,1,1,.38.9A19,19,0,0,1,360,217,.36.36,0,0,1,359.88,217ZM342,215.09a.5.5,0,0,1-.24-.06c-.58-.33-1.15-.69-1.69-1.06a.49.49,0,1,1,.56-.8,17.48,17.48,0,0,0,1.61,1,.49.49,0,0,1,.18.66A.48.48,0,0,1,342,215.09Zm23.86-1.21a.46.46,0,0,1-.37-.17.49.49,0,0,1,0-.68,11.83,11.83,0,0,0,1.32-1.33.49.49,0,0,1,.74.63,12,12,0,0,1-1.42,1.43A.49.49,0,0,1,365.85,213.88Zm-79.05-2.57h-.07a.5.5,0,0,1-.42-.55c.1-.65.2-1.3.32-1.94a.48.48,0,0,1,.57-.39.5.5,0,0,1,.39.57c-.12.63-.22,1.26-.31,1.89A.49.49,0,0,1,286.8,211.31Zm49.95-.51a.47.47,0,0,1-.37-.18,16.34,16.34,0,0,1-1.19-1.61.49.49,0,0,1,.82-.53,15.26,15.26,0,0,0,1.12,1.52.48.48,0,0,1-.07.68A.47.47,0,0,1,336.75,210.8Zm32.69-2.57a.25.25,0,0,1-.12,0,.48.48,0,0,1-.35-.59,10.93,10.93,0,0,0,.31-1.83.47.47,0,0,1,.53-.44.48.48,0,0,1,.44.52,11.76,11.76,0,0,1-.34,2A.48.48,0,0,1,369.44,208.23Zm-35.95-3.36a.48.48,0,0,1-.46-.32c-.22-.62-.43-1.24-.62-1.87a.49.49,0,0,1,.33-.61.48.48,0,0,1,.6.33c.19.61.39,1.22.6,1.82a.49.49,0,0,1-.29.62A.45.45,0,0,1,333.49,204.87Zm-45.26-.2-.13,0a.49.49,0,0,1-.33-.61c.18-.63.38-1.25.6-1.87a.48.48,0,0,1,.62-.3.48.48,0,0,1,.3.61c-.21.61-.41,1.22-.59,1.84A.49.49,0,0,1,288.23,204.67Zm43.39-6.35a.48.48,0,0,1-.47-.36c-.16-.63-.32-1.25-.49-1.87a.48.48,0,0,1,.33-.6.49.49,0,0,1,.6.34c.18.63.34,1.26.5,1.89a.48.48,0,0,1-.35.59Zm-40.94,0a.41.41,0,0,1-.21,0,.48.48,0,0,1-.22-.65c.28-.59.59-1.17.9-1.75a.5.5,0,0,1,.67-.19.49.49,0,0,1,.19.66c-.31.56-.61,1.13-.89,1.71A.49.49,0,0,1,290.68,198.32Zm3.55-5.8a.45.45,0,0,1-.29-.1.48.48,0,0,1-.1-.68c.4-.52.82-1,1.25-1.53a.49.49,0,0,1,.74.64c-.42.48-.82,1-1.21,1.48A.48.48,0,0,1,294.23,192.52Zm35.33-.67a.49.49,0,0,1-.45-.3,17.9,17.9,0,0,0-.83-1.7.49.49,0,0,1,.2-.66.48.48,0,0,1,.66.19c.3.56.6,1.16.87,1.79a.5.5,0,0,1-.26.64A.58.58,0,0,1,329.56,191.85Zm-30.62-4.22a.48.48,0,0,1-.31-.86c.51-.42,1-.82,1.58-1.19a.49.49,0,0,1,.68.12.49.49,0,0,1-.12.68c-.52.36-1,.74-1.52,1.14A.45.45,0,0,1,298.94,187.63Zm26.82-1.36a.51.51,0,0,1-.33-.13A12.79,12.79,0,0,0,324,185a.49.49,0,1,1,.56-.8,14.59,14.59,0,0,1,1.57,1.25.49.49,0,0,1,0,.69A.52.52,0,0,1,325.76,186.27Zm-21.05-2.2a.49.49,0,0,1-.2-.93q.9-.4,1.83-.75a.49.49,0,0,1,.34.92c-.6.22-1.2.46-1.77.71A.49.49,0,0,1,304.71,184.07Zm15.17-1.13-.14,0a17.7,17.7,0,0,0-1.84-.48.49.49,0,0,1-.38-.57.5.5,0,0,1,.58-.38,19.46,19.46,0,0,1,1.93.5.49.49,0,0,1-.15.95Zm-8.65-.73a.49.49,0,0,1-.48-.43.47.47,0,0,1,.42-.54c.66-.08,1.33-.13,2-.15a.48.48,0,0,1,.5.47.49.49,0,0,1-.47.5c-.62,0-1.26.07-1.89.14Z" style="opacity:0.4"></path><g style="opacity:0.2"><path d="M260.12,181.8a.48.48,0,0,1-.2,0c-45.62-19.72-95-17.28-95.52-17.25a.49.49,0,0,1-.51-.46.48.48,0,0,1,.46-.51c.5,0,50.13-2.48,96,17.33a.49.49,0,0,1-.19.93Z"></path><path d="M260.12,201.06a.63.63,0,0,1-.19,0c-45.9-18.95-95-16.18-95.52-16.15a.49.49,0,0,1-.52-.45.5.5,0,0,1,.46-.52c.49,0,49.84-2.81,96,16.22a.48.48,0,0,1-.18.93Z"></path><path d="M260.12,220.33a.39.39,0,0,1-.18,0c-46.18-18.16-95-15.06-95.53-15a.49.49,0,1,1-.07-1c.49,0,49.56-3.15,96,15.1a.49.49,0,0,1,.28.63A.5.5,0,0,1,260.12,220.33Z"></path><path d="M260.12,239.59a.47.47,0,0,1-.17,0c-46.47-17.39-95-14-95.54-13.92a.5.5,0,0,1-.52-.45.48.48,0,0,1,.45-.52c.49,0,49.27-3.49,96,14a.48.48,0,0,1,.28.63A.49.49,0,0,1,260.12,239.59Z"></path><path d="M260.12,258.86a.51.51,0,0,1-.17,0C213.2,242.21,164.9,246,164.42,246a.5.5,0,0,1-.53-.44.49.49,0,0,1,.45-.53c.48,0,49-3.81,95.94,12.87a.49.49,0,0,1,.3.62A.5.5,0,0,1,260.12,258.86Z"></path><path d="M260.12,278.12a.45.45,0,0,1-.16,0c-47-15.83-95.06-11.75-95.54-11.7a.5.5,0,0,1-.53-.44.49.49,0,0,1,.44-.53c.49,0,48.7-4.15,95.94,11.75a.49.49,0,0,1-.15.95Z"></path><path d="M260.12,297.38a.39.39,0,0,1-.15,0c-47.33-15.06-95.07-10.64-95.55-10.6a.49.49,0,1,1-.09-1c.48,0,48.41-4.48,95.93,10.64a.49.49,0,0,1-.14.95Z"></path><path d="M260.12,316.65l-.14,0c-47.62-14.28-95.08-9.54-95.55-9.49a.49.49,0,0,1-.54-.43.5.5,0,0,1,.44-.54c.47-.05,48.12-4.81,95.93,9.53a.49.49,0,0,1-.14.95Z"></path></g><path d="M189.7,218.63a4.82,4.82,0,0,0-4.82-4.82,4.59,4.59,0,0,0-1.39.21,9.13,9.13,0,0,0,.11-1.48,10.22,10.22,0,0,0-10.21-10.22,10.6,10.6,0,0,0-1.88.18A8.92,8.92,0,0,0,155,207h-.15a8.23,8.23,0,0,0,0,16.46H185A4.81,4.81,0,0,0,189.7,218.63Z" style="fill:#fff"></path><path d="M279.9,206a4.82,4.82,0,0,0-4.82-4.82,4.92,4.92,0,0,0-1.39.2,10.2,10.2,0,0,0-10.1-11.69,9.74,9.74,0,0,0-1.88.18,8.92,8.92,0,0,0-16.55,4.51H245a8.23,8.23,0,1,0,0,16.45h30.2A4.83,4.83,0,0,0,279.9,206Z" style="fill:#fff"></path><path d="M252.64,276.88a4.82,4.82,0,0,0-4.82-4.82,4.92,4.92,0,0,0-1.39.2,10.2,10.2,0,0,0-10.1-11.69,9.74,9.74,0,0,0-1.88.18,8.92,8.92,0,0,0-16.55,4.51h-.15a8.23,8.23,0,0,0,0,16.46H248A4.82,4.82,0,0,0,252.64,276.88Z" style="fill:#fff"></path><path d="M266.94,347s3.72,1.8,10.49,0a5.6,5.6,0,0,0-10.49,0Z"></path><path d="M266.94,347s3.72,1.8,10.49,0a5.6,5.6,0,0,0-10.49,0Z" style="fill:#fff;opacity:0.5"></path></g><g id="freepik--Plant--inject-5"><path d="M367.28,394s4.75-10.36-.68-20.58-7-12.62-3.54-14.72,5.05,8.18,5.05,8.18a23.05,23.05,0,0,0,.51-14.46c-2.41-7.39-3.92-19.43-.63-20.72s.63,15,3.48,20.58a47.7,47.7,0,0,0,2.79-12.13c.4-5.93-.22-15.41,2.38-17.85s4.26-.74,1.7,12.36a137.07,137.07,0,0,0-2.53,23.75s5.64-17.19,9.42-17.69,3.78,5.07.54,9.89-9.48,13.48-10.51,17.93c0,0,6.19-12.93,11.76-9s-4.85,11.78-9.49,14.6-7.86,20.52-7.86,20.52Z" style="fill:#3894A3"></path><path d="M367.28,394s4.75-10.36-.68-20.58-7-12.62-3.54-14.72,5.05,8.18,5.05,8.18a23.05,23.05,0,0,0,.51-14.46c-2.41-7.39-3.92-19.43-.63-20.72s.63,15,3.48,20.58a47.7,47.7,0,0,0,2.79-12.13c.4-5.93-.22-15.41,2.38-17.85s4.26-.74,1.7,12.36a137.07,137.07,0,0,0-2.53,23.75s5.64-17.19,9.42-17.69,3.78,5.07.54,9.89-9.48,13.48-10.51,17.93c0,0,6.19-12.93,11.76-9s-4.85,11.78-9.49,14.6-7.86,20.52-7.86,20.52Z" style="opacity:0.2;isolation:isolate"></path><path d="M371,398.28s-4.62-10.43.92-20.57,7.16-12.51,3.72-14.66-5.14,8.1-5.14,8.1a23.11,23.11,0,0,1-.34-14.46c2.5-7.36,4.15-19.37.88-20.71s-.81,15-3.73,20.52a47.88,47.88,0,0,1-2.64-12.17c-.33-5.94.4-15.41-2.16-17.88s-4.26-.81-1.86,12.33a137.89,137.89,0,0,1,2.25,23.79s-5.43-17.27-9.21-17.83-3.84,5-.66,9.88,9.32,13.62,10.29,18.08c0,0-6-13-11.64-9.14s4.7,11.85,9.31,14.74,7.61,20.63,7.61,20.63Z" style="fill:#3894A3"></path><polygon points="349.7 390.85 387.91 390.85 384.81 418.19 352.79 418.19 349.7 390.85" style="fill:#263238"></polygon></g><g id="freepik--Airplane--inject-5"><path d="M214.6,188.14l-.5.31-.83.51-18.52-1.71h0l6.55-5.23,13.17,4.65A.82.82,0,0,1,214.6,188.14Z" style="fill:#3894A3"></path><path d="M214.1,188.45l-.83.51-18.52-1.71,5.71-4.56,13.17,4.65A.81.81,0,0,1,214.1,188.45Z" style="opacity:0.2"></path><path d="M198.5,179.56l-10.92,7.11-.1-.24-6-15,2.89-1.42.1,0a3.72,3.72,0,0,1,4,.61Z" style="fill:#3894A3"></path><path d="M197.62,179.83l-10.14,6.6-6-15,2.89-1.42.1,0a3.72,3.72,0,0,1,3.13.88Z" style="opacity:0.2"></path><path d="M323.49,158l-.07.07-4.5,3.62H255.68l8-8,6.5-6.52,6.19.88,46.1,6.52A2,2,0,0,1,323.49,158Z" style="fill:#3894A3"></path><path d="M298,161.73H255.68l8-8,6.5-6.52,6.19.88a54.32,54.32,0,0,1,6.22,2.7C284.42,151.76,293.14,158.15,298,161.73Z" style="fill:#fff;opacity:0.9"></path><path d="M323.49,158l-.07.07-4.5,3.62h-62.6l13.2-13.23,52.29,7.39A2,2,0,0,1,323.49,158Z" style="opacity:0.2"></path><path d="M292.22,155.43A3.66,3.66,0,0,0,293,153a4.5,4.5,0,0,0-3.33-4.46,2.52,2.52,0,0,0-2.06.55c-3.43,2.22-15,10.45-16.84,14.73-1.16,2.7,2.92,1.25,5.74.68s10.74-5.27,15.07-8.48l.28-.2h0A1.85,1.85,0,0,0,292.22,155.43Z" style="fill:#3894A3"></path><path d="M293,153a3.77,3.77,0,0,1-.78,2.45,1.79,1.79,0,0,1-.36.37,2.43,2.43,0,0,1-.28.2q-.9.66-1.95,1.38c-4.46,3-10.73,6.62-13.12,7.1-2.82.58-6.9,2-5.74-.68,1.49-3.49,9.45-9.59,14.2-12.93,1.08-.77,2-1.39,2.64-1.8a2.57,2.57,0,0,1,2.06-.55C291.49,148.83,293,150.83,293,153Z" style="fill:#fff;opacity:0.9"></path><path d="M293,153a3.77,3.77,0,0,1-.78,2.45,1.79,1.79,0,0,1-.36.37,2.43,2.43,0,0,1-.28.2q-.9.66-1.95,1.38a4.68,4.68,0,0,1-2.43-.59,5.21,5.21,0,0,1-2.23-5.92c1.08-.77,2-1.39,2.64-1.8a2.57,2.57,0,0,1,2.06-.55C291.49,148.83,293,150.83,293,153Z" style="fill:#3894A3"></path><path d="M292.76,152.31c0,1.62-1.06,2.75-2.41,2.53a3.37,3.37,0,0,1-2.49-3.33c0-1.62,1.06-2.75,2.42-2.53A3.36,3.36,0,0,1,292.76,152.31Z" style="opacity:0.2"></path><path d="M289.6,151.07c.25-.34,1.79-.41,1.82,0,.09,1.2-.65,2-1.23,1.93A1.25,1.25,0,0,1,289.6,151.07Z" style="fill:#3894A3"></path><path d="M271.67,165.39c-1.78.36,16.1-11.79,16.1-11.79a3,3,0,0,0,3.66,1.65S282.58,163.25,271.67,165.39Z" style="opacity:0.2"></path><path d="M309,157a2.76,2.76,0,0,0,.58-1.8,3.33,3.33,0,0,0-2.45-3.29,1.86,1.86,0,0,0-1.53.4c-2.53,1.64-11.07,7.71-12.43,10.87-.85,2,2.16.92,4.24.5s7.93-3.88,11.12-6.25l.2-.15h0A1.33,1.33,0,0,0,309,157Z" style="fill:#3894A3"></path><path d="M309.55,155.23A2.79,2.79,0,0,1,309,157a1.79,1.79,0,0,1-.27.28l-.21.15-1.44,1c-3.28,2.23-7.92,4.88-9.68,5.23-2.08.43-5.09,1.49-4.23-.5,1.1-2.57,7-7.08,10.47-9.54.8-.56,1.48-1,1.95-1.33a1.89,1.89,0,0,1,1.53-.4A3.33,3.33,0,0,1,309.55,155.23Z" style="fill:#fff;opacity:0.9"></path><path d="M309.55,155.23A2.79,2.79,0,0,1,309,157a1.79,1.79,0,0,1-.27.28l-.21.15-1.44,1a3.57,3.57,0,0,1-1.79-.44,3.85,3.85,0,0,1-1.65-4.37c.8-.56,1.48-1,1.95-1.33a1.89,1.89,0,0,1,1.53-.4A3.33,3.33,0,0,1,309.55,155.23Z" style="fill:#3894A3"></path><path d="M309.37,154.73c0,1.19-.78,2-1.78,1.86a2.47,2.47,0,0,1-1.83-2.45c0-1.2.78-2,1.78-1.87A2.47,2.47,0,0,1,309.37,154.73Z" style="opacity:0.2"></path><path d="M307,153.81c.19-.25,1.32-.3,1.34,0,.07.88-.48,1.49-.91,1.42A.92.92,0,0,1,307,153.81Z" style="fill:#3894A3"></path><path d="M294.22,164.16c-1.29.25,11.57-8.47,11.57-8.47a2.18,2.18,0,0,0,2.63,1.18S302.06,162.62,294.22,164.16Z" style="opacity:0.2"></path><path d="M304.23,127.94a8.42,8.42,0,0,1-1.22,2.52,17,17,0,0,1-4.82,4.48l-1.09.72h0c-2,1.29-3.9,2.49-5.07,3.21l-50.51,32.06a98.1,98.1,0,0,1-28.24,12.23L210,184l-17.23,4.42a4.44,4.44,0,0,1-3.69-.68h0L186.57,186l13.61-9.63c2.63-1.86,5.33-3.62,8.07-5.29l67.74-41c10.1-5.68,12.9-5.45,18.67-4.48a25.93,25.93,0,0,1,7.65-.39,2.22,2.22,0,0,1,1.76,1.21A2.09,2.09,0,0,1,304.23,127.94Z" style="fill:#3894A3"></path><path d="M304.23,127.94a8.42,8.42,0,0,1-1.22,2.52,17,17,0,0,1-4.82,4.48l-1.09.72h0l-.11.07h0c-1.94,1.27-3.81,2.44-5,3.14l-15.13,9.61-35.38,22.45-.88.55a98,98,0,0,1-27.36,11.68L210,184l-17.23,4.42a4.44,4.44,0,0,1-3.69-.68L186.57,186l13.61-9.63c2.63-1.86,5.33-3.62,8.07-5.29l8-4.81,36.1-21.84L276,130.06c10.1-5.68,12.9-5.45,18.67-4.48l.65-.13a26.6,26.6,0,0,1,7-.26,2.22,2.22,0,0,1,1.76,1.21A2.09,2.09,0,0,1,304.23,127.94Z" style="fill:#fff;opacity:0.9"></path><path d="M304.23,127.94a8.42,8.42,0,0,1-1.22,2.52,17,17,0,0,1-4.82,4.48l-1.09.72h0l-.11.07h0a5.73,5.73,0,0,1-4-5.25,6,6,0,0,1,2.32-5,26.6,26.6,0,0,1,7-.26,2.22,2.22,0,0,1,1.76,1.21A2.09,2.09,0,0,1,304.23,127.94Z" style="fill:#3894A3"></path><path d="M205.61,176.18a.94.94,0,0,1-.82-.46,1,1,0,0,1,.32-1.33l.55-.33a1,1,0,0,1,1,1.65l-.54.33A.93.93,0,0,1,205.61,176.18Z" style="fill:#263238"></path><path d="M208.86,174.21a1,1,0,0,1-.82-.46,1,1,0,0,1,.32-1.33l1.09-.65a1,1,0,0,1,1.32.32,1,1,0,0,1-.32,1.33l-1.09.65A.9.9,0,0,1,208.86,174.21Zm3.8-2.3a1,1,0,0,1-.83-.46,1,1,0,0,1,.33-1.32l1.08-.66a1,1,0,1,1,1,1.65l-1.08.65A.93.93,0,0,1,212.66,171.91Zm3.81-2.31a1,1,0,0,1-.52-1.77l1.09-.66a1,1,0,0,1,1,1.65l-1.06.64A1,1,0,0,1,216.47,169.6Zm3.78-2.28a1,1,0,0,1-.5-1.79l1.08-.66a1,1,0,0,1,1.33.33,1,1,0,0,1-.33,1.32l-1.08.66A1,1,0,0,1,220.25,167.32Zm3.8-2.3a1,1,0,0,1-.51-1.79l1.09-.65a1,1,0,1,1,1,1.64l-1.09.66A1,1,0,0,1,224.05,165Zm3.79-2.3a.94.94,0,0,1-.82-.46,1,1,0,0,1,.32-1.33l1.08-.65a1,1,0,1,1,1,1.65l-1.08.65A.93.93,0,0,1,227.84,162.72Zm3.8-2.3a1,1,0,0,1-.5-1.78l1.08-.66a1,1,0,1,1,1,1.65l-1.08.65A.87.87,0,0,1,231.64,160.42Zm3.78-2.29a1,1,0,0,1-.5-1.79l1.09-.65a1,1,0,0,1,1,1.64l-1.09.66A1,1,0,0,1,235.42,158.13Zm3.8-2.3a.94.94,0,0,1-.82-.46,1,1,0,0,1,.32-1.33l1.09-.65a1,1,0,0,1,1,1.64l-1.09.66A.93.93,0,0,1,239.22,155.83Zm3.8-2.3a1,1,0,0,1-.83-.46,1,1,0,0,1,.33-1.33l1.08-.65a1,1,0,0,1,1.32.32,1,1,0,0,1-.32,1.33l-1.08.65A.93.93,0,0,1,243,153.53Zm3.79-2.3a1,1,0,0,1-.5-1.78l1.09-.66a1,1,0,0,1,1,1.65l-1.09.65A.93.93,0,0,1,246.81,151.23Zm3.8-2.3a1,1,0,0,1-.5-1.78l1.08-.66a1,1,0,1,1,1,1.65l-1.08.66A1,1,0,0,1,250.61,148.93Zm3.79-2.29a1,1,0,0,1-.5-1.79l1.09-.66a1,1,0,0,1,1,1.65l-1.09.66A1,1,0,0,1,254.4,146.64Zm3.8-2.3a1,1,0,0,1-.83-.47,1,1,0,0,1,.33-1.32l1.08-.65a1,1,0,1,1,1,1.64l-1.08.66A1,1,0,0,1,258.2,144.34ZM262,142a1,1,0,0,1-.82-.46,1,1,0,0,1,.32-1.33l1-.61a1,1,0,0,1,1.36.3.92.92,0,0,1-.28,1.3l-1.09.66A.9.9,0,0,1,262,142Zm3.8-2.3a1,1,0,0,1-.83-.46,1,1,0,0,1,.33-1.32l1.08-.66a1,1,0,1,1,1,1.65l-1.08.65A.93.93,0,0,1,265.79,139.74Zm3.8-2.3a1,1,0,0,1-.5-1.78l1.08-.66a1,1,0,0,1,1.32.32,1,1,0,0,1-.32,1.33l-1.09.65A.87.87,0,0,1,269.59,137.44Zm3.79-2.29a1,1,0,0,1-.5-1.79l1.09-.66a1,1,0,1,1,1,1.65l-1.08.66A1,1,0,0,1,273.38,135.15Z" style="fill:#263238"></path><path d="M277.13,132.88a1,1,0,0,1-.5-1.79l.55-.33a1,1,0,0,1,1.32.32,1,1,0,0,1-.33,1.33l-.55.33A1,1,0,0,1,277.13,132.88Z" style="fill:#263238"></path><path d="M282.59,129.73l0-2.24c2.06-1,5.05-2.82,9.63-2.27l2.46.36c-3.87-.32-7.76,1.54-11.09,3.56Z" style="fill:#263238"></path><path d="M304.23,127.94a8.42,8.42,0,0,1-1.22,2.52c-1.41,1-3.19,2.25-5.25,3.55-6.44,4.07-52.65,33.08-58.76,37.44-4.44,3.17-13.95,8-29,12.55-5.12,1.55-10.88,3.08-17.3,4.51a4.45,4.45,0,0,1-3.54-.72l-.08,0s20.29-6.82,24.86-9.37,70.27-43.12,76.95-46.79c5.28-2.89,10.3-4.76,13.17-5.18A2.09,2.09,0,0,1,304.23,127.94Z" style="opacity:0.2"></path><path d="M257.92,148.86l-.29.2-3.44,2.2-14.95,9.59a5.57,5.57,0,0,1-3,.88H165.51l2.63-2.88a13.34,13.34,0,0,1,8.62-4.27L238.09,149l19.27-1.76A.9.9,0,0,1,257.92,148.86Z" style="fill:#3894A3"></path><path d="M257.92,148.86l-.29.2-3.44,2.2-14.95,9.59a5.57,5.57,0,0,1-3,.88H187.63c16.6-3.14,42.44-8.5,50.46-12.76l19.27-1.76A.9.9,0,0,1,257.92,148.86Z" style="fill:#fff;opacity:0.9"></path><path d="M257.63,149.06l-18.39,11.79a5.57,5.57,0,0,1-3,.88H166l1.46-1.59a13.31,13.31,0,0,1,8.62-4.28l80.6-7.36A.86.86,0,0,1,257.63,149.06Z" style="opacity:0.2"></path><path d="M234.41,155.43a3.82,3.82,0,0,0,.78-2.45,4.52,4.52,0,0,0-3.33-4.45,2.55,2.55,0,0,0-2.07.55c-3.42,2.22-15,10.44-16.84,14.73-1.15,2.7,2.92,1.25,5.74.68s10.75-5.27,15.07-8.48a1.86,1.86,0,0,0,.28-.21h0A1.8,1.8,0,0,0,234.41,155.43Z" style="fill:#3894A3"></path><path d="M235.19,153a3.79,3.79,0,0,1-.78,2.44,1.45,1.45,0,0,1-.37.37,1.86,1.86,0,0,1-.28.21c-.59.44-1.24.9-1.94,1.38-4.46,3-10.74,6.62-13.13,7.1-2.81.57-6.89,2-5.73-.68,1.49-3.49,9.45-9.6,14.2-12.94,1.08-.76,2-1.38,2.63-1.79a2.51,2.51,0,0,1,2.07-.55C233.67,148.83,235.16,150.82,235.19,153Z" style="fill:#fff;opacity:0.9"></path><path d="M235.19,153a3.79,3.79,0,0,1-.78,2.44,1.45,1.45,0,0,1-.37.37,1.86,1.86,0,0,1-.28.21c-.59.44-1.24.9-1.94,1.38a5,5,0,0,1-2.44-.59,5.22,5.22,0,0,1-2.22-5.93c1.08-.76,2-1.38,2.63-1.79a2.51,2.51,0,0,1,2.07-.55C233.67,148.83,235.16,150.82,235.19,153Z" style="fill:#3894A3"></path><ellipse cx="232.5" cy="151.91" rx="2.38" ry="3.02" transform="translate(-37.08 85.13) rotate(-19.25)" style="opacity:0.2"></ellipse><path d="M231.79,151.06c.25-.33,1.79-.4,1.82,0,.08,1.21-.65,2-1.24,1.93A1.25,1.25,0,0,1,231.79,151.06Z" style="fill:#3894A3"></path><path d="M213.86,165.39c-1.79.35,16.09-11.79,16.09-11.79a3,3,0,0,0,3.66,1.64S224.77,163.24,213.86,165.39Z" style="opacity:0.2"></path><path d="M206.19,157a2.76,2.76,0,0,0,.58-1.8,3.33,3.33,0,0,0-2.45-3.29,1.86,1.86,0,0,0-1.53.4c-2.53,1.64-11.07,7.71-12.42,10.87-.86,2,2.15.92,4.23.5s7.93-3.88,11.12-6.25l.2-.15h0A1.33,1.33,0,0,0,206.19,157Z" style="fill:#3894A3"></path><path d="M206.77,155.23a2.79,2.79,0,0,1-.57,1.8,1.79,1.79,0,0,1-.27.28l-.21.15-1.44,1c-3.28,2.23-7.92,4.88-9.68,5.23-2.08.43-5.09,1.49-4.23-.5,1.1-2.57,7-7.08,10.47-9.54.8-.56,1.48-1,1.95-1.33a1.89,1.89,0,0,1,1.53-.4A3.33,3.33,0,0,1,206.77,155.23Z" style="fill:#fff;opacity:0.9"></path><path d="M206.77,155.23a2.79,2.79,0,0,1-.57,1.8,1.79,1.79,0,0,1-.27.28l-.21.15-1.44,1a3.57,3.57,0,0,1-1.79-.44,3.85,3.85,0,0,1-1.65-4.37c.8-.56,1.48-1,1.95-1.33a1.89,1.89,0,0,1,1.53-.4A3.33,3.33,0,0,1,206.77,155.23Z" style="fill:#3894A3"></path><path d="M206.59,154.73c0,1.19-.78,2-1.78,1.86a2.47,2.47,0,0,1-1.83-2.45c0-1.2.78-2,1.78-1.87A2.47,2.47,0,0,1,206.59,154.73Z" style="opacity:0.2"></path><path d="M204.26,153.81c.19-.25,1.32-.3,1.34,0,.07.88-.48,1.49-.91,1.42A.92.92,0,0,1,204.26,153.81Z" style="fill:#3894A3"></path><path d="M191.44,164.16c-1.29.25,11.57-8.47,11.57-8.47a2.18,2.18,0,0,0,2.63,1.18S199.28,162.62,191.44,164.16Z" style="opacity:0.2"></path><path d="M167.12,189l23.1-1.67L201.28,182l-29.2,3.55a4.78,4.78,0,0,0-2.71,1.29Z" style="fill:#3894A3"></path><path d="M198.2,183.48a.28.28,0,0,1-.11.08l-7.88,3.8L168.14,189l-1,.08,2.26-2.18a4.73,4.73,0,0,1,2.7-1.29l25.68-3.12A.58.58,0,0,1,198.2,183.48Z" style="fill:#3894A3"></path><path d="M198.2,183.48a.28.28,0,0,1-.11.08l-7.88,3.8L168.14,189l1.24-1.18a4.66,4.66,0,0,1,2.7-1.29l25.68-3.13A.58.58,0,0,1,198.2,183.48Z" style="opacity:0.2"></path></g><g id="freepik--Character--inject-5"><path d="M167.06,327.86H151.9V269.75h15.16Zm-12.24-2.92h9.32V272.67h-9.32Z" style="fill:#263238"></path><path d="M155.88,410.41h-1.95a3.89,3.89,0,1,0,0,7.78h1.95a3.89,3.89,0,1,0,0-7.78Z" style="fill:#263238"></path><path d="M159.84,414.23a4,4,0,1,1-4-4A4,4,0,0,1,159.84,414.23Z" style="fill:#fff;opacity:0.1;isolation:isolate"></path><path d="M166.57,410.41h-1.94a3.89,3.89,0,1,0,0,7.78h1.94a3.89,3.89,0,1,0,0-7.78Z" style="fill:#263238"></path><path d="M170.54,414.23a4,4,0,1,1-4-4A4,4,0,0,1,170.54,414.23Z" style="fill:#fff;opacity:0.2;isolation:isolate"></path><path d="M202.22,328.59v68.79c0,6.85-5.55,13-12.4,13H155.55V316.09h34.27a12.45,12.45,0,0,1,12.4,12.5Z" style="fill:#3894A3"></path><rect x="150.47" y="314.33" width="20.42" height="97.39" rx="2.62" style="fill:#263238"></rect><rect x="150.47" y="314.33" width="12.86" height="97.39" rx="2.62" style="fill:#fff;opacity:0.2;isolation:isolate"></rect><path d="M202.22,328.59v68.79c0,6.85-5.55,13-12.4,13H176.06a9.72,9.72,0,0,1-1.06-3.9V329.7a7,7,0,0,1,7.14-6.81h18.65A12.57,12.57,0,0,1,202.22,328.59Z" style="opacity:0.2;isolation:isolate"></path><rect x="151.92" y="316.92" width="8.76" height="92.33" rx="1.82" style="opacity:0.2;isolation:isolate"></rect><rect x="151.05" y="267.93" width="16.65" height="5.11" rx="1.94" style="fill:#263238"></rect><rect x="151.05" y="267.93" width="16.65" height="5.11" rx="1.94" style="fill:#fff;opacity:0.2;isolation:isolate"></rect><rect x="162.73" y="267.93" width="4.98" height="5.11" rx="1.94" style="opacity:0.2;isolation:isolate"></rect><path d="M122.12,212.79c-9.68-1.27-19.06-3.06-19.06-3.06l-.81.94S85.37,214,82.75,217.1s-1.85,16.48-1.85,16.48l1.09.94s-.32,28.45,3.33,33.41,19.88,5.58,32.25,2.19S131.81,214.05,122.12,212.79Z" style="fill:#263238"></path><path d="M117.57,270.11a54.91,54.91,0,0,1-6.3,1.33c-11,1.75-22.89.64-25.95-3.52C81.67,263,82,234.52,82,234.52l-1.09-.94s-.78-13.4,1.85-16.47c2.18-2.56,14.19-5.31,18.19-6.17l1.3-.27.82-.93s9.38,1.79,19.06,3S129.94,266.73,117.57,270.11Z" style="fill:#fff;opacity:0.4"></path><path d="M117.57,270.11a54.91,54.91,0,0,1-6.3,1.33c-7.55-.14-14.32-1.16-15.51-3.52-2.1-4.2.4-21.32-1.22-33.4s1.1-21.26,6.42-23.47l0-.11,1.3-.27.82-.93s9.38,1.79,19.06,3S129.94,266.73,117.57,270.11Z" style="opacity:0.2"></path><path d="M154.45,260.85l7,3,4.06,4.85-5.31,1.44-2.87-1.82s-5-.16-6.28-4.12Z" style="fill:#ce7a63"></path><path d="M151.68,265.48c-1.22-.61-6.44-4-11.42-7.61-4.45-3.19-8.71-6.51-9.84-8.14-1.41-2-3-8-4.21-14.3-1.52-7.83-2.46-16.07-1.76-17.46,1.26-2.5,6-3.92,6-3.92,5.67,3.35,8.37,25.4,9.52,29.57,0,0,15.41,15.09,16,16.82S151.68,265.48,151.68,265.48Z" style="fill:#3894A3"></path><path d="M151.68,265.48c-1.22-.61-6.44-4-11.42-7.61-4.45-3.19-8.71-6.51-9.84-8.14-1.41-2-3-8-4.21-14.3-1.52-7.83-2.46-16.07-1.76-17.46,1.26-2.5,6-3.92,6-3.92,5.67,3.35,8.37,25.4,9.52,29.57,0,0,15.41,15.09,16,16.82S151.68,265.48,151.68,265.48Z" style="fill:#fff;opacity:0.4"></path><path d="M163,418.18c-5.92,0-6.71-.09-10-.2-2.85-.1-3.53.26-5.82.2-1.91,0-1.84-1.87-1.25-4,.29-1.06.75-3.3,1.16-5l8.67-.63c1.22,2.33,4,5.65,7.31,6.1C166.23,415.1,165.37,418.18,163,418.18Z" style="fill:#3894A3"></path><path d="M119.22,418.18c-5.92,0-6.7-.09-10-.2-2.84-.1-3.53.26-5.81.2-1.92,0-1.85-1.87-1.26-4,.3-1.06.75-3.3,1.16-5l8.67-.63c1.22,2.33,4,5.65,7.31,6.1S121.58,418.18,119.22,418.18Z" style="fill:#3894A3"></path><path d="M163,418.18c-5.92,0-6.71-.09-10-.2-2.85-.1-3.53.26-5.82.2-1.91,0-1.84-1.87-1.25-4,.29-1.06.75-3.3,1.16-5l8.67-.63c1.22,2.33,4,5.65,7.31,6.1C166.23,415.1,165.37,418.18,163,418.18Z" style="fill:#fff;opacity:0.4"></path><path d="M119.22,418.18c-5.92,0-6.7-.09-10-.2-2.84-.1-3.53.26-5.81.2-1.92,0-1.85-1.87-1.26-4,.3-1.06.75-3.3,1.16-5l8.67-.63c1.22,2.33,4,5.65,7.31,6.1S121.58,418.18,119.22,418.18Z" style="fill:#fff;opacity:0.4"></path><path d="M140.26,257.87c-4.45-3.19-8.71-6.51-9.84-8.14-1.41-2-3-8-4.21-14.3,1.64-3.31,2.88-5.52,2.88-5.52S136.45,239.66,140.26,257.87Z" style="opacity:0.2"></path><path d="M101.55,173.07c-3-4-7.21-5.66-12.4-3s-5.22,7.86-2.51,13.16-5.37,7.1-3.65,12.39c.69,2.1,2.2,2.65,2.24,6.18,0,2.11-2.76,5.74-1,7.12,2.33,1.77,9.91-1.85,8.54-5.35s4-3.05,4.21-6.41c.22-3.63-2.37-4.84-1.38-7.52,1.16-3.13,4.44-3,5.9-7.48C102.81,178.38,102.53,174.34,101.55,173.07Z" style="fill:#3894A3"></path><path d="M101.55,173.07c-3-4-7.21-5.66-12.4-3s-5.22,7.86-2.51,13.16-5.37,7.1-3.65,12.39c.69,2.1,2.2,2.65,2.24,6.18,0,2.11-2.76,5.74-1,7.12,2.33,1.77,9.91-1.85,8.54-5.35s4-3.05,4.21-6.41c.22-3.63-2.37-4.84-1.38-7.52,1.16-3.13,4.44-3,5.9-7.48C102.81,178.38,102.53,174.34,101.55,173.07Z" style="opacity:0.5"></path><path d="M133.79,258.56s7.66,46.16,8.92,70c1.33,25,9.35,65.07,13.59,80.72-1.2,1.07-6.8,1.52-9.45.19,0,0-23.14-46.19-20.13-75.07-19.34-54.47-14.66-74.85-14.66-74.85Z" style="fill:#263238"></path><path d="M121,317c-2.75-9.08-4.73-16.93-6.13-23.67,1.39-5.27,3.36-9.78,6-12.5C120.91,280.87,124.77,295.56,121,317Z" style="opacity:0.2"></path><path d="M125.5,256.14s-6.32,49-10,72.55c-3.81,24.75-4.29,64.47-3.34,80.65-1.39.81-6.44,1.78-9.17.93,0,0-12.91-50.06-4.34-79.14-7.81-57.27,3.49-71.3,3.49-71.3Z" style="fill:#263238"></path><path d="M134.21,253.23c.35-7.16.5-12.2.52-17.29a95.18,95.18,0,0,0-.5-13c-.36-5.62-4.77-12-10.43-12.56-1.57-.17-3.21-.31-4.79-.4a101.73,101.73,0,0,0-14.5.5c-1.38.11-2.72.26-4,.44a7.45,7.45,0,0,0-6,9.89c4.59,14.3,6.61,23.6,7.28,31-.82,2.27-5.11,14.58-3.36,16,1.94,1.54,34.23,2.7,36.73,0C137.08,265.7,135.16,257,134.21,253.23Z" style="fill:#3894A3"></path><path d="M135.14,267.8c-2.51,2.68-34.79,1.53-36.73,0-1.76-1.4,2.54-13.7,3.36-16a92.52,92.52,0,0,0-2-12.28c-.76-3.37-1.74-7.15-3-11.43q-1-3.42-2.25-7.32a7.47,7.47,0,0,1,6-9.9c1.27-.16,2.6-.32,4-.43A103.18,103.18,0,0,1,119,210c1.57.09,3.22.23,4.78.4,5.67.59,10.08,6.94,10.44,12.56a97,97,0,0,1,.5,13c0,5.09-.17,10.13-.52,17.29C135.16,257,137.08,265.71,135.14,267.8Z" style="fill:#fff;opacity:0.4"></path><path d="M106.48,231.34s-2.21,11.2-7.12,18.39l1,1.73s5-6.24,8-20.12Z" style="fill:#263238"></path><path d="M106.48,231.34s-2.21,11.2-7.12,18.39l1,1.73s5-6.24,8-20.12Z" style="fill:#fff;opacity:0.2"></path><path d="M97.25,211.63s9.36,3.38,8.3,19.91a1.89,1.89,0,0,0,1.88,2h0a1.88,1.88,0,0,0,1.83-1.44c1-4.3,3.14-17.09-6.2-22.39C103.06,209.73,98.12,210.37,97.25,211.63Z" style="fill:#263238"></path><path d="M132.83,231.34s.65,8,1.67,15.21l.7-1.33s-.43-6.79-.9-13.88Z" style="fill:#263238"></path><path d="M132.83,231.34s.65,8,1.67,15.21l.7-1.33s-.43-6.79-.9-13.88Z" style="fill:#fff;opacity:0.2"></path><path d="M123.39,210.32s7.36,4.93,8.86,21.3a1.28,1.28,0,0,0,1.27,1.17h0a1.27,1.27,0,0,0,1.28-1.27c0-3.37-.53-12.67-5.72-19.41C129.08,212.11,125,209.49,123.39,210.32Z" style="fill:#263238"></path><g style="opacity:0.2"><path d="M124.86,268.42h-.07a.25.25,0,0,1-.17-.3c1.62-5.39-1.11-13.7-1.14-13.78a.34.34,0,0,1,0-.1c0-.16,1.8-15.46,0-26.66-1.35-8.42-4.35-12.28-4.38-12.32a.25.25,0,0,1,0-.34.23.23,0,0,1,.34,0c.13.16,3.11,4,4.48,12.54,1.76,10.93.13,25.73,0,26.74.25.78,2.74,8.65,1.13,14A.25.25,0,0,1,124.86,268.42Z"></path></g><path d="M103.88,205s10,2.7,16.64.87,4.13,9-2,8.85S100.23,208,103.88,205Z" style="fill:#3894A3"></path><path d="M105,194.1c1.42,4.62,3.26,13.11.33,16.33,0,0,4.4-.81,14,4.67,2.59-4,.52-5.16.52-5.16-5.33-1.07-5.62-4.92-5.11-8.57Z" style="fill:#ce7a63"></path><path d="M108.93,197.07l5.76,4.3a15,15,0,0,0-.17,2.58c-2-.22-5-2.3-5.42-4.37A7.07,7.07,0,0,1,108.93,197.07Z" style="opacity:0.2"></path><path d="M100.66,184.87c1.68,7.48,2.23,10.68,6.65,14.14,6.65,5.22,15.44,2,16-5.67.53-6.94-2.29-18-10.14-20.24A9.83,9.83,0,0,0,100.66,184.87Z" style="fill:#ce7a63"></path><path d="M111.13,169.39c5.57.69,13.08,6.82,5.82,7.46-.21,2.29-4.4,2-7.34.51.29,1.71-2.8,4.8-6.53,3.47,2.1,1.38,1.8,7.12-.89,7.24s-8.41,1.15-6.74-8.18S105.18,168.66,111.13,169.39Z" style="fill:#3894A3"></path><path d="M111.13,169.39c5.57.69,13.08,6.82,5.82,7.46-.21,2.29-4.4,2-7.34.51.29,1.71-2.8,4.8-6.53,3.47,2.1,1.38,1.8,7.12-.89,7.24s-8.41,1.15-6.74-8.18S105.18,168.66,111.13,169.39Z" style="opacity:0.5"></path><path d="M110.33,185.79c.11.64.53,1.12.94,1.07s.64-.59.53-1.22-.53-1.12-.94-1.07S110.21,185.16,110.33,185.79Z" style="fill:#263238"></path><path d="M118.23,184.69c.11.64.53,1.12.94,1.07s.65-.59.53-1.23-.53-1.11-.94-1.06S118.12,184.06,118.23,184.69Z" style="fill:#263238"></path><path d="M118.59,183.52l1.41-.6S119.45,184.19,118.59,183.52Z" style="fill:#263238"></path><path d="M116.06,186.35a18.74,18.74,0,0,0,2.94,3.81,2.55,2.55,0,0,1-2.14.66Z" style="fill:#ba4d3c"></path><path d="M113.69,193.55a5.41,5.41,0,0,0,1.06,0,.17.17,0,0,0,.15-.2.2.2,0,0,0-.21-.17,5.36,5.36,0,0,1-4.38-1.53.19.19,0,0,0-.26,0,.2.2,0,0,0,0,.27A5.67,5.67,0,0,0,113.69,193.55Z" style="fill:#263238"></path><path d="M99.17,191.34a6.17,6.17,0,0,0,4,2.39c2.07.24,2.67-1.85,1.72-3.77-.85-1.73-3-3.94-4.85-3.29S97.92,189.69,99.17,191.34Z" style="fill:#ce7a63"></path><path d="M108.45,182a.38.38,0,0,0,.26-.13,2.7,2.7,0,0,1,2.4-1,.36.36,0,0,0,.41-.31.41.41,0,0,0-.34-.43,3.41,3.41,0,0,0-3.06,1.25.38.38,0,0,0,.06.53A.47.47,0,0,0,108.45,182Z" style="fill:#263238"></path><path d="M120.73,180.17a.34.34,0,0,0,.26-.08.36.36,0,0,0,0-.52,3.89,3.89,0,0,0-3.13-1.53.34.34,0,0,0-.32.4.41.41,0,0,0,.43.34,3.17,3.17,0,0,1,2.47,1.24A.39.39,0,0,0,120.73,180.17Z" style="fill:#263238"></path><path d="M110.69,184.62l1.41-.6S111.55,185.29,110.69,184.62Z" style="fill:#263238"></path><path d="M119.28,215.1s-14.92-14.82-22.42-9.63c-4.27,3-1.73,6.16.39,6.16a19.34,19.34,0,0,0,5-1S107.27,214.14,119.28,215.1Z" style="fill:#3894A3"></path><path d="M119.28,215.1s2.68-6,1.43-8.38,6.83-2.11,7.41,2.7S119.28,215.1,119.28,215.1Z" style="fill:#3894A3"></path><path d="M119.28,215.1s-14.92-14.82-22.42-9.63c-4.27,3-1.73,6.16.39,6.16a19.34,19.34,0,0,0,5-1S107.27,214.14,119.28,215.1Z" style="fill:#fff;opacity:0.2"></path><path d="M119.28,215.1s2.68-6,1.43-8.38,6.83-2.11,7.41,2.7S119.28,215.1,119.28,215.1Z" style="fill:#fff;opacity:0.2"></path><path d="M126.35,241.28l-11.24,22-14-5.65.08-.15-1.12-1.29-.78-.3,11.75-22.78s12.21,5,13.53,5.8A4.31,4.31,0,0,1,126.35,241.28Z" style="fill:#3894A3"></path><path d="M126.35,241.28l-11.24,22-14-5.65.08-.15-1.12-1.29-.78-.3,11.75-22.78s12.21,5,13.53,5.8a1.33,1.33,0,0,1,.19.14A4.32,4.32,0,0,1,126.35,241.28Z" style="opacity:0.4"></path><path d="M126.35,241.28l-11.24,22-14-5.65.08-.15-1.12-1.29,13.71,5.14,11-22.28A4.32,4.32,0,0,1,126.35,241.28Z" style="opacity:0.2"></path><path d="M114.61,263l-13.37-5.45-1.12-1.29,13.67,5.27C114.8,262.38,114.61,263,114.61,263Z" style="fill:#fff;opacity:0.6000000000000001"></path><polygon points="107.69 251.88 118.49 235.27 123.97 238.58 113.42 255.07 107.69 251.88" style="fill:#fff"></polygon><polygon points="107.69 251.88 118.49 235.27 123.97 238.58 113.42 255.07 107.69 251.88" style="opacity:0.1"></polygon><polygon points="107.83 251.8 117.52 234.52 123.21 237.47 113.76 254.61 107.83 251.8" style="fill:#fff"></polygon><polygon points="109.06 251.16 113.24 238.63 122.6 240.87 118.76 253.45 109.06 251.16" style="fill:#3894A3"></polygon><path d="M115.76,248.65a2.76,2.76,0,0,1-2.4-1.36,2.75,2.75,0,0,1-.24-2.16,3,3,0,0,1,3.58-2.08,2.7,2.7,0,0,1,1.72,1.28,2.75,2.75,0,0,1,.24,2.16h0A3,3,0,0,1,115.76,248.65Zm.25-5.44a2.8,2.8,0,0,0-2.66,2,2.53,2.53,0,0,0,.22,2,2.45,2.45,0,0,0,1.57,1.16,2.77,2.77,0,0,0,3.28-1.9h0a2.46,2.46,0,0,0-1.78-3.15A2.7,2.7,0,0,0,116,243.21Z" style="fill:#fff"></path><polygon points="115.22 248.49 114.99 248.42 116.55 243.13 116.79 243.2 115.22 248.49" style="fill:#fff"></polygon><path d="M115.33,248.61a1,1,0,0,1-.25,0,1.12,1.12,0,0,1-.71-.58,3.46,3.46,0,0,1-.1-2.59c.46-1.55,1.52-2.59,2.43-2.37a1.12,1.12,0,0,1,.71.58,3.51,3.51,0,0,1,.1,2.59C117.09,247.62,116.17,248.61,115.33,248.61Zm1.12-5.34c-.72,0-1.56.93-1.93,2.21a3.23,3.23,0,0,0,.07,2.4.92.92,0,0,0,.55.45c.74.18,1.72-.82,2.12-2.19h0a3.28,3.28,0,0,0-.07-2.4.92.92,0,0,0-.55-.45Z" style="fill:#fff"></path><rect x="115.76" y="243.08" width="0.26" height="5.46" transform="translate(-150.45 299.83) rotate(-76.22)" style="fill:#fff"></rect><path d="M121.57,251.26l-1.42-1.9a2.79,2.79,0,0,0-2.29-1.12l-4.19.1a5.14,5.14,0,0,0-4.16,2.27l-.59.86c2.16,3.33,6.93,5.34,6.93,5.34l1.3.72a2.3,2.3,0,0,0,3.18-.82l1.47-2.55A2.65,2.65,0,0,0,121.57,251.26Z" style="fill:#ce7a63"></path><path d="M99.75,239.54c-.76-3.37-1.74-7.15-3-11.43,1-.78,2.28-.82,3.66.35A30.11,30.11,0,0,1,99.75,239.54Z" style="opacity:0.2"></path><path d="M97.1,212.88c-3.14-1.79-16.69,24.7-15,33.72s29.59,7.7,29.59,7.7,1.72-3.78,1.26-6.14c0,0-13-5.21-18.92-6.47l7-13.19S102.45,215.91,97.1,212.88Z" style="fill:#3894A3"></path><path d="M97.1,212.88c-3.14-1.79-16.69,24.7-15,33.72s29.59,7.7,29.59,7.7,1.72-3.78,1.26-6.14c0,0-13-5.21-18.92-6.47l7-13.19S102.45,215.91,97.1,212.88Z" style="fill:#fff;opacity:0.4"></path></g><g id="freepik--speech-bubble--inject-5"><path d="M135.84,127.51a26.49,26.49,0,1,0-29.48,26.31l3,10,3-10A26.48,26.48,0,0,0,135.84,127.51Z" style="fill:#3894A3"></path><path d="M135.84,127.51a26.49,26.49,0,1,0-29.48,26.31l3,10,3-10A26.48,26.48,0,0,0,135.84,127.51Z" style="fill:#fff;opacity:0.8"></path><path d="M120.17,121.75v14.93c0,1.31-4.85,2.37-10.82,2.37S98.53,138,98.53,136.68V121.75Z" style="fill:#3894A3"></path><polygon points="120.17 121.75 120.17 127.09 109.35 130.73 98.53 127.09 98.53 121.75 120.17 121.75" style="opacity:0.2"></polygon><polygon points="109.35 115.11 89.67 121.74 109.35 128.38 129.02 121.74 109.35 115.11" style="fill:#3894A3"></polygon><path d="M122,133.33a.43.43,0,0,1-.43-.43v-8.49l-12.38-4.19a.42.42,0,0,1-.27-.53.44.44,0,0,1,.54-.27l12.67,4.29a.41.41,0,0,1,.29.39v8.8A.42.42,0,0,1,122,133.33Z" style="fill:#263238"></path><path d="M122,132a.77.77,0,0,0-.73.8v1.88h1.45v-1.88A.76.76,0,0,0,122,132Z" style="fill:#263238"></path></g></svg>
