<svg width="58" height="47" viewBox="0 0 58 47" fill="none" xmlns="http://www.w3.org/2000/svg">
<path fill-rule="evenodd" clip-rule="evenodd" d="M53.2875 12.0722C53.7602 10.9152 55.2827 6.32464 52.8148 0.105612C52.8148 0.105612 49.01 -1.08902 40.3448 4.80604C36.7198 3.79364 32.8425 3.64901 29 3.64901C25.1575 3.64901 21.2802 3.79364 17.6552 4.80604C8.99 -1.12373 5.1852 0.105612 5.1852 0.105612C2.7202 6.32464 4.2427 10.9152 4.7125 12.0722C1.7748 15.2193 0 19.2689 0 24.1863C0 42.8058 12.0698 47 28.9275 47C45.7852 47 58 42.8058 58 24.1863C58 19.2689 56.2223 15.2193 53.2875 12.0722ZM29 43.4566C17.0375 43.4566 7.3225 42.9157 7.3225 31.3454C7.3225 28.5975 8.7 25.9941 11.02 23.8594C14.9002 20.316 21.5325 22.1962 29 22.1962C36.5052 22.1962 43.065 20.316 46.98 23.8594C49.3377 25.9941 50.6775 28.5598 50.6775 31.3454C50.6775 42.8781 40.9625 43.4566 29 43.4566ZM19.9027 25.3433C17.5102 25.3433 15.5527 28.2359 15.5527 31.7793C15.5527 35.3227 17.5073 38.25 19.9027 38.25C22.2952 38.25 24.2527 35.3574 24.2527 31.7793C24.2527 28.1983 22.2952 25.3433 19.9027 25.3433ZM38.0973 25.3433C35.7048 25.3433 33.7473 28.1983 33.7473 31.7793C33.7473 35.3574 35.7048 38.25 38.0973 38.25C40.4898 38.25 42.4473 35.3574 42.4473 31.7793C42.4473 28.1983 40.5275 25.3433 38.0973 25.3433Z" fill="white"/>
</svg>
