<svg xmlns="http://www.w3.org/2000/svg" viewBox="0 0 500 500"><g id="freepik--background-complete--inject-7"><rect x="306.39" y="36.05" width="52.67" height="83.05" transform="translate(243.41 407.35) rotate(-87.97)" style="fill:#ebebeb"></rect><path d="M375.15,52.73c-3.46,3.09-7,6-10.48,9.07s-7,5.93-10.57,8.87q-5.53,4.59-11.09,9.1c-.12.09-.22.19-.33.29l-9.86,8-.49.37-.44-.41q-4.65-4.31-9.26-8.65l-.32-.3c-3.49-3.26-7-6.54-10.43-9.88-3.31-3.15-6.62-6.36-9.91-9.57s-6.57-6.46-9.81-9.79c3.47,2.87,6.87,5.88,10.29,8.82s6.83,6,10.22,9q5.65,5,11.3,10.21s0,0,0,0l8.45,7.72c3-2.37,6-4.76,9-7.1,0,0,0,0,0,0,4-3.15,8-6.29,12-9.39q5.38-4.16,10.81-8.26C367.89,58.11,371.49,55.35,375.15,52.73Z" style="fill:#fff"></path><path d="M324.05,79.06a.87.87,0,0,1-.1.08c-.45.36-.9.72-1.35,1.06-2.14,1.69-4.33,3.29-6.56,4.85-2.71,1.92-5.48,3.76-8.27,5.58s-5.6,3.56-8.47,5.26-5.76,3.35-8.75,4.85c2.6-2.11,5.29-4.08,8-6s5.5-3.76,8.27-5.58,5.62-3.57,8.49-5.27c2.28-1.35,4.6-2.68,7-3.92.54-.29,1.09-.57,1.65-.85Z" style="fill:#fff"></path><path d="M373.15,103.67c-2.87-1.71-5.65-3.57-8.38-5.46s-5.42-3.86-8.09-5.84-5.29-4.05-7.86-6.16c-2.1-1.71-4.17-3.45-6.17-5.28l-1.29-1.17a.76.76,0,0,0-.09-.09l.12.06,1.59,1c2.27,1.41,4.47,2.89,6.67,4.41C352.39,87,355.06,89,357.73,91s5.28,4,7.85,6.15S370.71,101.37,373.15,103.67Z" style="fill:#fff"></path><rect x="366.46" y="122.99" width="38.44" height="60.61" transform="translate(120.73 472.74) rotate(-72)" style="fill:#ebebeb"></rect><path d="M420.43,144.38c-3.05,1.47-6.11,2.83-9.17,4.26s-6.13,2.75-9.2,4.1-6.41,2.79-9.61,4.16l-.29.13-8.51,3.61-.42.16-.23-.37q-2.38-4-4.76-7.93c-.06-.08-.11-.18-.17-.27-1.79-3-3.57-6-5.33-9q-2.53-4.32-5-8.71c-1.64-3-3.31-5.85-4.92-8.83,1.86,2.71,3.64,5.5,5.45,8.25s3.59,5.57,5.36,8.38q3,4.68,5.88,9.44s0,0,0,0l4.38,7.11c2.57-1.07,5.15-2.14,7.72-3.18l0,0q5.14-2.11,10.31-4.18c3.07-1.23,6.16-2.44,9.24-3.63S417.34,145.48,420.43,144.38Z" style="fill:#fff"></path><path d="M379.29,152.59l-.08,0-1.16.48c-1.85.75-3.71,1.43-5.58,2.08-2.29.8-4.6,1.54-6.92,2.26s-4.65,1.37-7,2-4.72,1.2-7.11,1.65c2.24-1,4.52-1.8,6.81-2.6s4.61-1.53,6.93-2.25,4.65-1.38,7-2c1.87-.5,3.76-1,5.67-1.36l1.33-.26Z" style="fill:#fff"></path><path d="M408.8,179.72c-1.67-1.78-3.25-3.64-4.78-5.52s-3-3.79-4.51-5.72-2.89-3.9-4.27-5.9c-1.13-1.62-2.24-3.26-3.28-4.94-.22-.37-.44-.72-.66-1.08a.56.56,0,0,0-.05-.08l.07.07.92,1c1.31,1.44,2.56,2.93,3.8,4.43,1.54,1.88,3,3.8,4.49,5.73s2.9,3.9,4.28,5.9S407.55,177.62,408.8,179.72Z" style="fill:#fff"></path><path d="M446,226H332.79s11.22-30.66,28.49-30.66S384,216.52,384,216.52,395.62,205,405.19,205s17.89,15.19,17.89,15.19S436.61,212.05,446,226Z" style="fill:#ebebeb"></path><path d="M215.85,74.59H163s11.81-17.13,21.13-17.13,12.06,11.42,12.06,11.42,6.57-5.33,12.66-4.38S215.85,74.59,215.85,74.59Z" style="fill:#ebebeb"></path><path d="M286,172.6H233.08s11.82-17.13,21.13-17.13,12.06,11.42,12.06,11.42,6.57-5.33,12.66-4.38S286,172.6,286,172.6Z" style="fill:#ebebeb"></path><path d="M120.88,249.58H68s11.82-17.12,21.13-17.12,12.07,11.42,12.07,11.42,6.57-5.33,12.66-4.38S120.88,249.58,120.88,249.58Z" style="fill:#ebebeb"></path><path d="M157.05,111.15H54s14.11-31.49,29.2-33.46,22.31,23.4,22.31,23.4,9.73-9,17.39-9,13.56,11.82,13.56,11.82S151.8,95.84,157.05,111.15Z" style="fill:#ebebeb"></path></g><g id="freepik--Fence--inject-7"><polygon points="448.1 377.24 52.1 379.32 51.9 362.56 447.89 360.48 448.1 377.24" style="fill:#4D9E9E"></polygon><polygon points="448.1 377.24 52.1 379.32 51.9 362.56 447.89 360.48 448.1 377.24" style="opacity:0.6000000000000001"></polygon><polygon points="448.03 442.92 52.03 442.31 51.97 425.56 447.97 426.16 448.03 442.92" style="fill:#4D9E9E"></polygon><polygon points="448.03 442.92 52.03 442.31 51.97 425.56 447.97 426.16 448.03 442.92" style="opacity:0.6000000000000001"></polygon><polygon points="66.46 335.36 65.06 442.94 46.41 442.94 45 335.36 55.74 326.42 66.46 335.36" style="fill:#4D9E9E"></polygon><polygon points="66.46 335.36 65.06 442.94 46.41 442.94 45 335.36 55.74 326.42 66.46 335.36" style="opacity:0.30000000000000004"></polygon><path d="M58.05,433.81a2.32,2.32,0,1,1-2.32-2.31A2.31,2.31,0,0,1,58.05,433.81Z" style="opacity:0.2"></path><path d="M58.05,367.59a2.32,2.32,0,1,1-2.32-2.31A2.31,2.31,0,0,1,58.05,367.59Z" style="opacity:0.2"></path><polygon points="121.96 335.36 120.56 442.94 101.92 442.94 100.51 335.36 111.24 326.42 121.96 335.36" style="fill:#4D9E9E"></polygon><polygon points="121.96 335.36 120.56 442.94 101.92 442.94 100.51 335.36 111.24 326.42 121.96 335.36" style="opacity:0.30000000000000004"></polygon><path d="M113.55,433.81a2.31,2.31,0,1,1-2.31-2.31A2.3,2.3,0,0,1,113.55,433.81Z" style="opacity:0.2"></path><path d="M113.55,367.59a2.31,2.31,0,1,1-2.31-2.31A2.3,2.3,0,0,1,113.55,367.59Z" style="opacity:0.2"></path><polygon points="177.47 335.36 176.07 442.94 157.41 442.94 156.02 335.36 166.75 326.42 177.47 335.36" style="fill:#4D9E9E"></polygon><polygon points="177.47 335.36 176.07 442.94 157.41 442.94 156.02 335.36 166.75 326.42 177.47 335.36" style="opacity:0.30000000000000004"></polygon><path d="M169.06,433.81a2.32,2.32,0,1,1-2.32-2.31A2.31,2.31,0,0,1,169.06,433.81Z" style="opacity:0.2"></path><path d="M169.06,367.59a2.32,2.32,0,1,1-2.32-2.31A2.31,2.31,0,0,1,169.06,367.59Z" style="opacity:0.2"></path><polygon points="232.97 335.36 231.58 442.94 212.92 442.94 211.52 335.36 222.25 326.42 232.97 335.36" style="fill:#4D9E9E"></polygon><polygon points="232.97 335.36 231.58 442.94 212.92 442.94 211.52 335.36 222.25 326.42 232.97 335.36" style="fill:#4D9E9E"></polygon><polygon points="232.97 335.36 231.58 442.94 212.92 442.94 211.52 335.36 222.25 326.42 232.97 335.36" style="opacity:0.30000000000000004"></polygon><path d="M224.56,433.81a2.31,2.31,0,1,1-2.31-2.31A2.31,2.31,0,0,1,224.56,433.81Z" style="opacity:0.2"></path><path d="M224.56,367.59a2.31,2.31,0,1,1-2.31-2.31A2.31,2.31,0,0,1,224.56,367.59Z" style="opacity:0.2"></path><polygon points="288.48 335.36 287.08 442.94 268.42 442.94 267.03 335.36 277.75 326.42 288.48 335.36" style="fill:#4D9E9E"></polygon><polygon points="288.48 335.36 287.08 442.94 268.42 442.94 267.03 335.36 277.75 326.42 288.48 335.36" style="opacity:0.30000000000000004"></polygon><path d="M280.06,433.81a2.31,2.31,0,1,1-2.31-2.31A2.3,2.3,0,0,1,280.06,433.81Z" style="opacity:0.2"></path><path d="M280.06,367.59a2.31,2.31,0,1,1-2.31-2.31A2.3,2.3,0,0,1,280.06,367.59Z" style="opacity:0.2"></path><polygon points="343.98 335.36 342.58 442.94 323.93 442.94 322.53 335.36 333.25 326.42 343.98 335.36" style="fill:#4D9E9E"></polygon><polygon points="343.98 335.36 342.58 442.94 323.93 442.94 322.53 335.36 333.25 326.42 343.98 335.36" style="opacity:0.30000000000000004"></polygon><path d="M335.57,367.59a2.32,2.32,0,1,1-2.31-2.31A2.31,2.31,0,0,1,335.57,367.59Z" style="opacity:0.2"></path><path d="M335.57,434.24a2.32,2.32,0,1,1-2.31-2.31A2.31,2.31,0,0,1,335.57,434.24Z" style="opacity:0.2"></path><polygon points="399.49 335.36 398.08 442.94 379.44 442.94 378.04 335.36 388.76 326.42 399.49 335.36" style="fill:#4D9E9E"></polygon><polygon points="399.49 335.36 398.08 442.94 379.44 442.94 378.04 335.36 388.76 326.42 399.49 335.36" style="opacity:0.30000000000000004"></polygon><path d="M391.07,367.59a2.31,2.31,0,1,1-2.31-2.31A2.3,2.3,0,0,1,391.07,367.59Z" style="opacity:0.2"></path><path d="M391.07,434.24a2.31,2.31,0,1,1-2.31-2.31A2.3,2.3,0,0,1,391.07,434.24Z" style="opacity:0.2"></path><polygon points="455 335.36 453.59 442.94 434.94 442.94 433.54 335.36 444.26 326.42 455 335.36" style="fill:#4D9E9E"></polygon><polygon points="455 335.36 453.59 442.94 434.94 442.94 433.54 335.36 444.26 326.42 455 335.36" style="opacity:0.30000000000000004"></polygon><path d="M446.58,367.59a2.32,2.32,0,1,1-2.31-2.31A2.31,2.31,0,0,1,446.58,367.59Z" style="opacity:0.2"></path><path d="M446.58,431.93a2.32,2.32,0,1,1-2.31-2.32A2.32,2.32,0,0,1,446.58,431.93Z" style="opacity:0.2"></path></g><g id="freepik--Character--inject-7"><path d="M104.51,329.49s20.73,81.43,28.93,113.62h83.47c-9.38-33-33.86-124.08-33.86-124.08Z" style="fill:#d3766a"></path><path d="M67.4,410.92s-1.86,18.7-3.15,32.19h79.63c.49-11.62,1.13-26.4,1.16-26.41l.09-.05,3.49-1.75,12.56-6.24.52-.26,6.38-3.17c0-.05.13-.59.31-1.56.45-2.33,1.35-7.11,2.48-13.16,1.4-7.49,3.15-16.93,4.84-26.12,3.18-17.21,7.34-45.36,7.34-45.36H75.59S55.85,375.7,67.4,410.92Z" style="fill:#d3766a"></path><path d="M216.91,443.11,183.05,319H75.59s-23.53,53-10.66,90.87l-6.09,33.21Z" style="fill:#263238"></path><path d="M137.44,399.08a177.16,177.16,0,0,1,20.16-16.63c3.57-2.45,7.23-4.72,11-6.93,1.86-1.1,3.67-2.25,5.49-3.42a27.87,27.87,0,0,0,5.31-4.18.16.16,0,0,1,.23.21,48.26,48.26,0,0,1-4.3,4.74,45.19,45.19,0,0,1-4.88,3.83c-3.6,2.53-7.31,4.88-10.94,7.37-7.31,5-14.62,10-21.56,15.56C137.59,399.88,137.14,399.36,137.44,399.08Z" style="fill:#37474f"></path><path d="M123.1,419a226.1,226.1,0,0,1,19.09-16.7c3.35-2.59,6.82-5,10.38-7.26q2.55-1.65,5.14-3.21c1.91-1.15,4-2.05,5.85-3.23.2-.12.42.16.22.29-1.74,1.17-3.3,2.63-5,3.89s-3.38,2.53-5.06,3.79c-3.37,2.55-6.71,5.12-10.1,7.63-6.8,5-13.51,10.09-20.13,15.35C123.16,419.83,122.79,419.3,123.1,419Z" style="fill:#37474f"></path><path d="M172.46,198.78c.78-5.05,1.41-10.15,1.78-15.27a141,141,0,0,0,1.74-22c0-12.14-.9-26.81-11.92-34.28-5.08-3.44-11.17-5.12-17.15-6.14-6.25-1-13-1.49-18.84,1.34a16.45,16.45,0,0,0-5.92,4.77c-4.24,1.26-8.53,2.73-12.12,5.3-4.63,2.08-7.75,7-9.81,11.4-2.49,5.31-3.77,11.08-4.78,16.83-.94,5.36-1.54,10.66-.35,16,1,4.69,3,9.09,4.79,13.52,2.17,5.37,4.19,10.84,4.4,16.69,0,.19.31.21.31,0-.07-9.36-5-17.68-7.63-26.45a36.56,36.56,0,0,1-1.26-15.35,89,89,0,0,1,3.84-17.46c1.65-4.79,4.25-10.22,8.39-13.5a1.9,1.9,0,0,0-.21.19c-4.66,4.48-6.7,10.88-8.14,17a72.31,72.31,0,0,0-2.21,20.92c.4,6.44,2.35,12.53,4.48,18.58s4.4,12.11,4.89,18.53c.52,6.77-1.25,13.39-3.15,19.82-1.83,6.22-3.88,12.5-4.15,19A28.12,28.12,0,0,0,103.92,265c6,9.17,19.32,16.49,29.64,9.76a36.33,36.33,0,0,0,6.8-6.19,89,89,0,0,0,6.21-7.65,109.3,109.3,0,0,0,10.53-18.06c5.89-12.55,9.84-25.94,13.11-39.38.8-3.31,1.56-6.64,2.24-10A203.05,203.05,0,0,1,168,216.16c-3.47,13.42-8,27-15.29,38.91a90.67,90.67,0,0,1-6.21,8.85c-2.45,3.09-5.17,5.87-7.82,8.77a.18.18,0,0,0,.25.27,71.09,71.09,0,0,0,13-15.12,97.37,97.37,0,0,0,9.46-18.31A188.06,188.06,0,0,0,172.46,198.78Z" style="fill:#c7c7c7"></path><path d="M138.11,226.36c15.85,36.1,37.86,77.51,50.67,81.7,13.68,4.47,65.48-4.82,83.35-10.24,5.86-1.77-13.91-42.44-20-44.84s-44.55,11-48.47,10.19c-2.09-.42-29.9-33.49-49.2-47.89C136.48,201.86,133.07,214.88,138.11,226.36Z" style="fill:#d3766a"></path><path d="M237.37,258.36s7.6-14.39,12.34-20,30-19.91,33.45-14.62c4.39,6.83-8.59,18-15.66,22.61,0,0,10.18,15.79,2.59,25.81S237.37,258.36,237.37,258.36Z" style="fill:#d3766a"></path><path d="M267.72,299c6.09-1.39,33.41-10.24,40.47-14.4S334.67,267,332,261.28s-8.65-2.24-8.65-2.24,7.31-7,4.13-12.5-12.35.2-12.35.2,7-7.71,3.42-13-11.82,2-11.82,2,6.71-6.76,1.94-9.87C303,222.15,292,236,283.87,240c-1.84.92-38.74,15.8-38.74,15.8Z" style="fill:#d3766a"></path><path d="M307.49,235.15c-8.09,10.17-13.39,13.22-25.46,17.43-.24.09-.17.46.09.39,12.2-3.05,19.39-5.91,25.88-17.45C308.32,235,307.87,234.67,307.49,235.15Z" style="fill:#263238"></path><path d="M315.8,245.92c-9.32,9.83-15,13.19-27.36,18.53a.17.17,0,0,0,.12.32c12.52-4.23,19.64-7.26,27.66-18.3C316.59,246,316.23,245.47,315.8,245.92Z" style="fill:#263238"></path><path d="M322.76,259.29c-9.72,8.86-15.82,12.81-28.45,16.47a.24.24,0,0,0,.1.47c13.24-2.47,20.9-7.35,28.58-16.62C323.52,259,323.37,258.73,322.76,259.29Z" style="fill:#263238"></path><path d="M283.75,226c-.49,9.13-10.16,14.6-16.69,19.61a.75.75,0,0,0,0,1.23c3.83,6.91,7.22,17.76,3.54,25.24a.19.19,0,0,0,.33.19c5-7.48,2.57-18.42-2.1-25.71,6.77-5,16.23-11,15-20.55C283.83,226,283.75,226,283.75,226Z" style="fill:#263238"></path><path d="M235.69,254.2l18.45,52.21s-60.33,9.12-70.4,1.07S145.15,250,137.88,229.59s.75-27.47,18.77-13.9,45.45,43.79,47.11,44.06S235.69,254.2,235.69,254.2Z" style="fill:#4D9E9E"></path><path d="M136.5,213.2a2.25,2.25,0,0,1-1.2,2,9.6,9.6,0,0,1,.84-3.19A2.16,2.16,0,0,1,136.5,213.2Zm23.46,36a2.23,2.23,0,1,0,2.22,2.23A2.23,2.23,0,0,0,160,249.2Zm25.68,0a2.23,2.23,0,1,0,2.22,2.23A2.23,2.23,0,0,0,185.64,249.2Zm-38.53-19.06a2.23,2.23,0,1,0,2.23,2.22A2.21,2.21,0,0,0,147.11,230.14Zm27.74,1.37a2.19,2.19,0,0,1,.17.85,2.23,2.23,0,1,1-2.22-2.22,2.13,2.13,0,0,1,.72.12h0Zm10.79,55.91a2.23,2.23,0,1,0,2.22,2.23A2.23,2.23,0,0,0,185.64,287.42Zm25.68,0a2.23,2.23,0,1,0,2.23,2.23A2.23,2.23,0,0,0,211.32,287.42Zm25.68,0a2.23,2.23,0,1,0,2.23,2.23A2.23,2.23,0,0,0,237,287.42Zm-64.2-19.06a2.23,2.23,0,1,0,2.22,2.22A2.22,2.22,0,0,0,172.8,268.36Zm25.68,0a2.23,2.23,0,1,0,2.23,2.22A2.22,2.22,0,0,0,198.48,268.36Zm25.68,0a2.23,2.23,0,1,0,2.23,2.22A2.22,2.22,0,0,0,224.16,268.36Zm-25.68,38.22a2.23,2.23,0,0,0-2.23,2.23,2.2,2.2,0,0,0,.94,1.81h0c.78.05,1.57.08,2.39.11h0a2.22,2.22,0,0,0-1.12-4.15Zm25.68,0a2.23,2.23,0,0,0-2.23,2.23,2.19,2.19,0,0,0,.35,1.19c1.32-.1,2.64-.21,3.94-.33a2.2,2.2,0,0,0,.17-.86A2.23,2.23,0,0,0,224.16,306.58Zm25.68,0a2.25,2.25,0,0,0-1.58.65l2.67-.36A2.11,2.11,0,0,0,249.84,306.58Z" style="fill:#040403;opacity:0.1"></path><path d="M225.1,259.34c3.16,7.93,11.09,29.73,14.29,44.59,0,.09-.33.21-.36.13-4.62-11.92-12-36.35-14.44-44.55C224.54,259.36,225,259.19,225.1,259.34Z" style="fill:#263238"></path><path d="M234.67,308.85c-18.57,2-44.62,3.68-50.93-1.37-10.07-8.06-38.59-57.44-45.86-77.89-6-16.77-1.65-24.51,10-19.27C168.77,233.87,216.43,287.73,234.67,308.85Z" style="fill:#020100;opacity:0.1"></path><path d="M74.52,317.47H182l-6.75-29.75s11.06-7.65,7.69-20.69c-4.73-18.31-31.45-55.55-33.76-57.53-9.29-7.95-23.49-7.72-30.73-1.64C85.41,235.55,74.52,317.47,74.52,317.47Z" style="fill:#fff"></path><path d="M138,281a100.06,100.06,0,0,1,14.69-.25c2.43.18,4.83.46,7.25.8,1.2.17,2.4.29,3.61.41a15.59,15.59,0,0,0,3.8,0c.11,0,.13.15,0,.17a26.53,26.53,0,0,1-3.55.58,26.94,26.94,0,0,1-3.48,0c-2.47-.16-4.93-.42-7.39-.6-5-.36-9.95-.71-14.94-.71C137.81,281.42,137.8,281,138,281Z" style="fill:#263238"></path><path d="M126.93,287.42a111.06,111.06,0,0,1,11.81-2.74c2-.33,4-.55,6-.72,1-.08,1.93-.14,2.9-.2s2.13,0,3.19,0c.11,0,.14.16,0,.17-1,.1-2,.37-3,.52l-3,.46c-2,.31-4,.65-6,.94-4,.59-8,1.21-11.94,1.94C126.77,287.79,126.73,287.48,126.93,287.42Z" style="fill:#263238"></path><path d="M122.74,205.25s10.24,64.8,8.63,76.44-12.43,147.84-12.43,147.84c-44.42.28-74.82-14.24-74.82-14.24s9.12-57.6,26.72-97.82C70.84,317.47,86.59,221,122.74,205.25Z" style="fill:#4D9E9E"></path><path d="M110.65,214a2.19,2.19,0,0,1-1.09,1.17C109.92,214.81,110.28,214.42,110.65,214Zm-2.06,35.16a2.23,2.23,0,1,0,2.23,2.23A2.23,2.23,0,0,0,108.59,249.2ZM97.94,232q-.68,1.22-1.32,2.46A2.24,2.24,0,0,0,98,232.36,1.75,1.75,0,0,0,97.94,232Zm23.49-1.82a2.23,2.23,0,1,0,2.23,2.22A2.21,2.21,0,0,0,121.43,230.14ZM82.91,287.42a2.23,2.23,0,1,0,2.23,2.23A2.23,2.23,0,0,0,82.91,287.42Zm25.68,0a2.23,2.23,0,1,0,2.23,2.23A2.23,2.23,0,0,0,108.59,287.42ZM95.75,268.36A2.23,2.23,0,1,0,98,270.58,2.22,2.22,0,0,0,95.75,268.36Zm25.68,0a2.23,2.23,0,1,0,2.23,2.22A2.21,2.21,0,0,0,121.43,268.36ZM82.91,325.64a2.23,2.23,0,1,0,2.23,2.23A2.23,2.23,0,0,0,82.91,325.64Zm25.68,0a2.23,2.23,0,1,0,2.23,2.23A2.23,2.23,0,0,0,108.59,325.64ZM95.75,306.58A2.23,2.23,0,1,0,98,308.81,2.23,2.23,0,0,0,95.75,306.58Zm25.68,0a2.23,2.23,0,1,0,2.23,2.23A2.22,2.22,0,0,0,121.43,306.58Zm-64.2,57.28a2.23,2.23,0,1,0,2.23,2.23A2.23,2.23,0,0,0,57.23,363.86Zm25.68,0a2.23,2.23,0,1,0,2.23,2.23A2.23,2.23,0,0,0,82.91,363.86Zm25.68,0a2.23,2.23,0,1,0,2.23,2.23A2.23,2.23,0,0,0,108.59,363.86ZM70.07,344.8A2.23,2.23,0,1,0,72.3,347,2.23,2.23,0,0,0,70.07,344.8Zm25.68,0A2.23,2.23,0,1,0,98,347,2.23,2.23,0,0,0,95.75,344.8Zm25.68,0a2.23,2.23,0,1,0,2.23,2.23A2.22,2.22,0,0,0,121.43,344.8Zm-64.2,57.28a2.23,2.23,0,1,0,2.23,2.23A2.23,2.23,0,0,0,57.23,402.08Zm25.68,0a2.23,2.23,0,1,0,2.23,2.23A2.23,2.23,0,0,0,82.91,402.08Zm25.68,0a2.23,2.23,0,1,0,2.23,2.23A2.23,2.23,0,0,0,108.59,402.08ZM70.07,383a2.23,2.23,0,1,0,2.23,2.23A2.23,2.23,0,0,0,70.07,383Zm25.68,0A2.23,2.23,0,1,0,98,385.25,2.23,2.23,0,0,0,95.75,383Zm25.68,0a2.23,2.23,0,0,0,0,4.46,2.27,2.27,0,0,0,.9-.19c.1-1.29.21-2.59.32-3.91A2.24,2.24,0,0,0,121.43,383ZM70.07,421.24a2.23,2.23,0,0,0-2.22,2.06c1.37.35,2.79.7,4.27,1a2.12,2.12,0,0,0,.18-.87A2.23,2.23,0,0,0,70.07,421.24Zm25.68,0A2.23,2.23,0,1,0,98,423.47,2.23,2.23,0,0,0,95.75,421.24Zm23.46,2.23a2.15,2.15,0,0,0,.15.8c0-.59.1-1.23.15-1.91A2.22,2.22,0,0,0,119.21,423.47Z" style="fill:#040403;opacity:0.1"></path><path d="M149.16,209.5s15.33,43.3,16.78,58,23.55,160,23.55,160,15.7-3.55,23.35-12.19L179.47,286.88s8.87-10.76,5.88-21.5S164,217.9,149.16,209.5Z" style="fill:#4D9E9E"></path><path d="M175,270.58a2.23,2.23,0,1,1-2.22-2.22A2.22,2.22,0,0,1,175,270.58Zm10.62,55.06a2.23,2.23,0,1,0,2.22,2.23A2.23,2.23,0,0,0,185.64,325.64ZM172.8,306.58a2.21,2.21,0,0,0-1.34.45c.18,1.27.37,2.56.56,3.86a2.22,2.22,0,1,0,.78-4.31Zm12.84,57.28a2.23,2.23,0,1,0,2.22,2.23A2.23,2.23,0,0,0,185.64,363.86Zm0,38.22c.23,1.51.45,3,.66,4.36a2.23,2.23,0,0,0-.66-4.36Zm24,.79a2.24,2.24,0,0,0-.53,1.44,2.2,2.2,0,0,0,1.45,2.08ZM198.48,383a2.23,2.23,0,1,0,2.23,2.23A2.23,2.23,0,0,0,198.48,383Zm0,38.22a2.23,2.23,0,0,0-2.23,2.23,2.26,2.26,0,0,0,.71,1.64h0c1.18-.45,2.44-1,3.74-1.56v-.08A2.23,2.23,0,0,0,198.48,421.24Z" style="fill:#040403;opacity:0.1"></path><path d="M123.59,208.05c.71,2.07,9.85,14.51,21.34,11.56,6.68-1.71,1.92-13.84,1.92-13.84l2.3-19.56-25.57-12.74S123.3,207.17,123.59,208.05Z" style="fill:#d3766a"></path><path d="M123.53,186.06A37.56,37.56,0,0,0,147,204.69l2.17-18.47-25.57-12.75S123.56,179.15,123.53,186.06Z" style="fill:#263238"></path><path d="M171.65,159.63c2.12,32.19-16.93,37.09-23.87,37.54-6.3.4-27.81,1-33.24-30.81s8.87-43,23.24-44.66S169.54,127.43,171.65,159.63Z" style="fill:#d3766a"></path><path d="M165.92,155.05a18.66,18.66,0,0,1-2.2-.45,3.59,3.59,0,0,1-2.15-.88,1.16,1.16,0,0,1,0-1.41,2.84,2.84,0,0,1,2.81-.68A4.19,4.19,0,0,1,167,153.1,1.23,1.23,0,0,1,165.92,155.05Z" style="fill:#c7c7c7"></path><path d="M143.54,156.54a20.84,20.84,0,0,0,2.19-.47,3.73,3.73,0,0,0,2.14-.91,1.16,1.16,0,0,0,0-1.41,2.87,2.87,0,0,0-2.83-.65,4.18,4.18,0,0,0-2.63,1.5A1.23,1.23,0,0,0,143.54,156.54Z" style="fill:#c7c7c7"></path><path d="M148,164.45c0-.08-.17.11-.17.2.14,2.2-.08,4.75-2,5.54-.06,0-.05.14,0,.13C148.19,169.9,148.44,166.52,148,164.45Z" style="fill:#263238"></path><path d="M145.92,162.2c-3.56-.16-3.63,7-.33,7.12S148.9,162.34,145.92,162.2Z" style="fill:#263238"></path><path d="M144.52,162.56c-.63.4-1.25,1.11-2,1.17s-1.52-.67-2.08-1.39c-.05-.08-.12,0-.12.08,0,1.36.48,2.77,1.94,3s2.31-1,2.66-2.37C145,162.78,144.77,162.4,144.52,162.56Z" style="fill:#263238"></path><path d="M160.74,164.05c0-.08.17.11.16.2-.1,2.21.14,4.75,2.13,5.52.06,0,.05.14,0,.13C160.58,169.51,160.28,166.13,160.74,164.05Z" style="fill:#263238"></path><path d="M162.75,161.78c3.56-.2,3.71,6.92.42,7.11S159.77,162,162.75,161.78Z" style="fill:#263238"></path><path d="M164.25,162.22c.57.37,1.14,1,1.81,1.07s1.34-.75,1.83-1.5c.05-.08.1,0,.11.08.06,1.36-.36,2.78-1.66,3.07s-2.09-.88-2.44-2.23C163.83,162.46,164,162.07,164.25,162.22Z" style="fill:#263238"></path><path d="M148.53,182.16c.49.54,1,1.28,1.78,1.39a5.85,5.85,0,0,0,2.4-.42.08.08,0,0,1,.09.12,3,3,0,0,1-2.87,1,2.36,2.36,0,0,1-1.62-2C148.28,182.11,148.45,182.08,148.53,182.16Z" style="fill:#263238"></path><path d="M157.74,174.16s.46,3.29.47,4.85c0,.14-.38.21-.91.25,0,0,0,0-.06,0a7.42,7.42,0,0,1-7.19-2.75c-.1-.15.09-.31.23-.22a11.16,11.16,0,0,0,6.76,1.93c.11-.44-1-5.62-.73-5.64a13.4,13.4,0,0,1,3.53.79c-.76-6.9-2.63-13.61-3.28-20.49a.21.21,0,0,1,.4-.1c2.45,6.9,3.51,14.81,4.48,21.92C161.57,175.58,158.36,174.42,157.74,174.16Z" style="fill:#263238"></path><path d="M155.76,179a7.59,7.59,0,0,1-3.18,2.15,3.4,3.4,0,0,1-2.07,0c-1.47-.49-1.41-1.87-1.06-3a7.76,7.76,0,0,1,.79-1.75A9.73,9.73,0,0,0,155.76,179Z" style="fill:#263238"></path><path d="M152.58,181.16a3.4,3.4,0,0,1-2.07,0c-1.47-.49-1.41-1.87-1.06-3C151,178.4,152.55,179.59,152.58,181.16Z" style="fill:#ff97b8"></path><path d="M116,166.32c5.24.66,7-10.31,7-10.31s10.69.56,15-14.64a23.73,23.73,0,0,1-5.35,12.48s18.95-1.08,27.65-16.47c0,0-3.56,7.88-6.66,10.59,0,0,8-1.81,12.18-8,0,0,2.85,9.26,5.27,11.9,0,0,.83-33-29.89-31,0,0-19.19.34-26.8,15.14S116,166.32,116,166.32Z" style="fill:#c7c7c7"></path><path d="M120,166.28s-6.82-10.21-11.45-7.8.37,17.12,5.69,19.23a5.46,5.46,0,0,0,7.37-2.78Z" style="fill:#d3766a"></path><path d="M110.1,162.66a.07.07,0,0,0,0,.14c3.73,1.61,5.63,5.13,6.94,8.78-1.09-1.42-2.59-2.21-4.48-.92-.1.07,0,.22.09.2a3.38,3.38,0,0,1,3.67,1.25,16.4,16.4,0,0,1,1.71,3c.17.34.78.17.66-.22l0-.09C118.82,170,115.24,163.25,110.1,162.66Z" style="fill:#263238"></path><rect x="218.85" y="183.83" width="52.55" height="82.87" transform="translate(-39.84 397.37) rotate(-73.71)" style="fill:#ebebeb"></rect><path d="M292.27,211.66c-4.11,2.13-8.24,4.12-12.37,6.2s-8.26,4-12.4,6q-6.48,3.07-13,6.08l-.4.2-11.48,5.27-.57.24-.33-.5-6.82-10.64a3.37,3.37,0,0,1-.24-.37q-3.87-6-7.66-12.12c-2.43-3.87-4.84-7.78-7.23-11.69s-4.77-7.87-7.08-11.88c2.64,3.63,5.19,7.37,7.78,11.06s5.14,7.46,7.66,11.24q4.25,6.25,8.43,12.66s0,0,0,0c2.09,3.17,4.18,6.36,6.27,9.54,3.46-1.56,7-3.14,10.41-4.67,0,0,0,0,0,0q6.95-3.1,13.91-6.13,6.24-2.72,12.49-5.34C283.92,215.08,288.08,213.29,292.27,211.66Z" style="fill:#c7c7c7"></path><path d="M236.38,224.56l-.12.06-1.57.69c-2.48,1.1-5,2.12-7.53,3.08-3.1,1.19-6.23,2.29-9.37,3.36s-6.3,2.07-9.49,3-6.39,1.83-9.65,2.55c3-1.41,6.11-2.65,9.21-3.83s6.24-2.29,9.37-3.37,6.31-2.07,9.5-3c2.54-.74,5.11-1.46,7.7-2.08l1.81-.41Z" style="fill:#c7c7c7"></path><path d="M277.81,260.43c-2.36-2.36-4.59-4.84-6.76-7.34s-4.29-5.07-6.39-7.64-4.12-5.21-6.09-7.88c-1.6-2.17-3.18-4.37-4.67-6.63-.33-.49-.64-1-1-1.45,0,0,0-.08-.07-.11l.1.09c.44.46.87.89,1.29,1.34,1.85,1.92,3.62,3.9,5.37,5.9,2.19,2.51,4.29,5.07,6.38,7.65s4.11,5.21,6.08,7.88S276,257.61,277.81,260.43Z" style="fill:#c7c7c7"></path><path d="M104.49,239.26c.87,17.16,11.23,82.55,26,89.45,14.27,6.68,72.29-12.63,91.78-21.82,5.72-2.7-24.17-46.22-30.29-43.34-7.41,3.48-39.76,16.35-42,17.63-1.53.88-14.62-33.81-24.16-50.18C110.83,205.32,103.47,219.33,104.49,239.26Z" style="fill:#d3766a"></path><path d="M181,276.25a86.52,86.52,0,0,1,19.24-27.46c5.73-5.53,18.68-12.54,24.07-14.55,8.07-3,43.74-10.45,45.72-1.84,1.8,7.8-29.65,10.29-29.65,10.29s31.52-5.32,32,4.46S236.87,255,236.87,255s32.5-4.75,31.36,5.41c-.86,7.68-33.48,7.78-33.48,7.78s28-3.88,27.42,4C261.57,281,231.46,283,231.46,283c.68,3.66.62,18-10.51,24.45C219,308.59,181,276.25,181,276.25Z" style="fill:#d3766a"></path><path d="M229.36,243.84c3.68-.76,7.4-1.56,11.14-2s7.48-.73,11.24-.81a64.4,64.4,0,0,1,14.65,1.08c-8.68-1-22.08.33-25.81.76s-7.48.67-11.21,1.1C229.28,244,229.27,243.85,229.36,243.84Z" style="fill:#263238"></path><path d="M230.67,257.35c4.74-.77,9.42-1.7,14.19-2.26s9.31-.67,14.09-.89c.37,0,.26.18-.11.22-4.77.41-9.14,1.17-13.9,1.64s-9.54.76-14.26,1.4C230.6,257.47,230.6,257.36,230.67,257.35Z" style="fill:#263238"></path><path d="M229.71,269.15a110.3,110.3,0,0,1,22.28-2.1c.36,0,.19.25-.18.27-7.32.46-13.37,1.07-22.05,2.08C229.62,269.41,229.55,269.18,229.71,269.15Z" style="fill:#263238"></path><path d="M221,307.48a20.39,20.39,0,0,0,5.26-4.75,22,22,0,0,0,3.37-6.21,28.56,28.56,0,0,0,1.51-6.9,34.6,34.6,0,0,0,0-7.05l0-.45.46,0c3.82-.27,7.65-.72,11.43-1.34A68.16,68.16,0,0,0,254,278.07a21.26,21.26,0,0,0,5-2.45A7.73,7.73,0,0,0,261,273.8a2.41,2.41,0,0,0,.47-2.14A3.46,3.46,0,0,0,259.8,270a10.27,10.27,0,0,0-2.5-1,26.79,26.79,0,0,0-5.55-.89l-6.67-.5,6.64-.92a69,69,0,0,0,7.53-1.45,22.39,22.39,0,0,0,6.92-2.76,3.53,3.53,0,0,0,1.73-2.57,3.73,3.73,0,0,0-1.5-2.72,9.59,9.59,0,0,0-3.3-1.35,24.66,24.66,0,0,0-3.72-.61l-6-.53,6-.85a33.12,33.12,0,0,0,9.1-2.4,9.21,9.21,0,0,0,1.9-1.17,4.77,4.77,0,0,0,1.29-1.68,3.22,3.22,0,0,0-.68-3.74,8.21,8.21,0,0,0-4-1.95,34.44,34.44,0,0,0-4.71-.59c-3.2-.24-6.42-.38-9.63-.47l-4.05-.12,4-.76c2.29-.43,4.59-1,6.85-1.64a38.8,38.8,0,0,0,6.58-2.46,11.13,11.13,0,0,0,2.86-1.95,3.77,3.77,0,0,0,.91-1.4,2.16,2.16,0,0,0-.09-1.6,5.31,5.31,0,0,0-2.68-2.09,17.11,17.11,0,0,0-3.37-1.05,16.36,16.36,0,0,1,3.43.9,5.43,5.43,0,0,1,2.89,2.1,2.41,2.41,0,0,1,.16,1.84,4,4,0,0,1-.95,1.59,11.84,11.84,0,0,1-2.91,2.13,39,39,0,0,1-6.61,2.7c-2.28.71-4.57,1.31-6.91,1.8l-.08-.87c3.23,0,6.46.1,9.69.28a34.3,34.3,0,0,1,4.89.53,9.31,9.31,0,0,1,4.61,2.19,4.59,4.59,0,0,1,1.32,2.42,4.5,4.5,0,0,1-.35,2.74,6.08,6.08,0,0,1-1.61,2.14,10.38,10.38,0,0,1-2.19,1.37,34.55,34.55,0,0,1-9.5,2.59l0-1.38a26.19,26.19,0,0,1,3.95.62,10.76,10.76,0,0,1,3.84,1.58,5.87,5.87,0,0,1,1.45,1.66,4.21,4.21,0,0,1,.64,2.23,4,4,0,0,1-.77,2.21A6.81,6.81,0,0,1,267,263.6a22.26,22.26,0,0,1-7.43,3,69.52,69.52,0,0,1-7.72,1.45l0-1.42a29.22,29.22,0,0,1,5.83,1,12.36,12.36,0,0,1,2.82,1.19,4.77,4.77,0,0,1,2.19,2.47,3.72,3.72,0,0,1-.65,3.31,9,9,0,0,1-2.25,2.15,22.49,22.49,0,0,1-5.35,2.57,64.34,64.34,0,0,1-11.37,2.55c-3.84.56-7.68.94-11.55,1.14l.41-.48a31.84,31.84,0,0,1-1.89,14.22,22.61,22.61,0,0,1-3.62,6.21A20.06,20.06,0,0,1,221,307.48Z" style="fill:#263238"></path><path d="M178.56,267.94l23.75,53.64s-65,19.23-75.3,8.51S105.63,269.64,103.44,241c-2-26.32,12-35.61,25.6-7s18.3,43.67,21.17,43.67S178.56,267.94,178.56,267.94Z" style="fill:#4D9E9E"></path><path d="M110.82,251.43a2.23,2.23,0,1,1-2.23-2.23A2.22,2.22,0,0,1,110.82,251.43Zm23.45-2.23a2.23,2.23,0,1,0,2.23,2.23A2.22,2.22,0,0,0,134.27,249.2Zm-12.84-19.06a2.23,2.23,0,1,0,2.23,2.22A2.21,2.21,0,0,0,121.43,230.14Zm12.84,57.28a2.23,2.23,0,1,0,2.23,2.23A2.22,2.22,0,0,0,134.27,287.42Zm25.69,0a2.23,2.23,0,1,0,2.22,2.23A2.23,2.23,0,0,0,160,287.42Zm25.68,0a2.23,2.23,0,1,0,2.22,2.23A2.23,2.23,0,0,0,185.64,287.42Zm-64.21-19.06a2.23,2.23,0,1,0,2.23,2.22A2.21,2.21,0,0,0,121.43,268.36Zm23.63,1.35a2.29,2.29,0,0,0-.17.87,2.23,2.23,0,0,0,1.58,2.14C146,271.83,145.57,270.83,145.06,269.71Zm29.62-.3-4.08,1.52a2.22,2.22,0,0,0,4.42-.35A2.11,2.11,0,0,0,174.68,269.41Zm-40.41,56.23a2.23,2.23,0,1,0,2.23,2.23A2.22,2.22,0,0,0,134.27,325.64Zm25.69,0a2.23,2.23,0,1,0,2.22,2.23A2.23,2.23,0,0,0,160,325.64Zm25.68,0a2.25,2.25,0,0,0-1.72.81l2.59-.63A2.12,2.12,0,0,0,185.64,325.64Zm-64.21-19.06a2.23,2.23,0,1,0,2.23,2.23A2.22,2.22,0,0,0,121.43,306.58Zm25.68,0a2.23,2.23,0,1,0,2.23,2.23A2.22,2.22,0,0,0,147.11,306.58Zm25.69,0a2.23,2.23,0,1,0,2.22,2.23A2.23,2.23,0,0,0,172.8,306.58Zm23.56,1.55a2.21,2.21,0,0,0,1.19,2.7Z" style="fill:#040403;opacity:0.1"></path><path d="M189.4,325.09A273.56,273.56,0,0,1,154.68,333c-3,.44-5.91.82-8.89,1.06a71,71,0,0,1-9,.24c-.76,0-1.52-.08-2.28-.19a22.54,22.54,0,0,1-2.28-.37,11.64,11.64,0,0,1-4.48-1.85,24.57,24.57,0,0,1-5.59-7.36,104,104,0,0,1-6.62-16.68q-2.64-8.53-4.62-17.24a271.75,271.75,0,0,1-5.87-35.12c.93,5.86,2,11.68,3.32,17.46s2.6,11.56,4.06,17.29,3.06,11.43,4.91,17a104,104,0,0,0,6.59,16.31,22.85,22.85,0,0,0,5,6.77,10,10,0,0,0,3.69,1.51c.7.13,1.39.28,2.1.35s1.43.16,2.16.2a100.68,100.68,0,0,0,17.56-.95c5.86-.76,11.7-1.72,17.52-2.81S183.61,326.36,189.4,325.09Z" style="fill:#263238"></path><path d="M103.25,262.51c.88,1.57,1.6,3.17,2.33,4.77s1.43,3.21,2.13,4.85a17.75,17.75,0,0,1-2.81-4.54A23,23,0,0,1,103.25,262.51Z" style="fill:#263238"></path><path d="M166.54,272.42a43.39,43.39,0,0,1,5.84-2.7,49.51,49.51,0,0,1,6.12-2l.18,0,0,.14c.11.39.22.78.32,1.18-.23-.34-.45-.68-.66-1l.23.09a47.82,47.82,0,0,1-5.9,2.53A41.7,41.7,0,0,1,166.54,272.42Z" style="fill:#263238"></path><path d="M170.11,277.44c3.89,7.61,13.81,28.57,18.39,43.07,0,.09-.3.24-.34.16-5.72-11.44-15.37-35.07-18.55-43C169.55,277.52,170,277.3,170.11,277.44Z" style="fill:#263238"></path></g><g id="freepik--Mailbox--inject-7"><rect x="409.83" y="216.23" width="21.8" height="226.88" style="fill:#37474f"></rect><rect x="431.63" y="216.23" width="11.82" height="226.88" transform="translate(875.08 659.35) rotate(180)" style="fill:#455a64"></rect><rect x="407.83" y="210.07" width="23.8" height="6.16" style="fill:#263238"></rect><rect x="431.63" y="210.07" width="13.88" height="6.16" transform="translate(877.13 426.31) rotate(180)" style="fill:#37474f"></rect><rect x="412.62" y="204.62" width="19.01" height="5.46" style="fill:#37474f"></rect><rect x="431.63" y="204.62" width="9.5" height="5.46" style="fill:#455a64"></rect><circle cx="426.96" cy="192.32" r="12.3" style="fill:#37474f"></circle><path d="M337.91,258.57V311H281.42v-52a27.77,27.77,0,0,1,27.78-27.77h1.44A27.28,27.28,0,0,1,337.91,258.57Z" style="fill:#4D9E9E"></path><path d="M427,254.32V311h-89V258.57a27.28,27.28,0,0,0-27.27-27.28h93.29A23,23,0,0,1,427,254.32Z" style="fill:#4D9E9E"></path><path d="M427,254.32V311h-89V258.57a27.28,27.28,0,0,0-27.27-27.28h93.29A23,23,0,0,1,427,254.32Z" style="fill:#020100;opacity:0.1"></path><path d="M353.37,257.55V311h-3.63V258.57a27.28,27.28,0,0,0-27.28-27.28h4.64A26.27,26.27,0,0,1,353.37,257.55Z" style="fill:#020100;opacity:0.1"></path><path d="M418.69,257.55V311h-3.63V258.57a27.28,27.28,0,0,0-27.28-27.28h4.64A26.27,26.27,0,0,1,418.69,257.55Z" style="fill:#020100;opacity:0.1"></path><g style="opacity:0.1"><path d="M373.14,297v-8.46l-3.07,6.15h-1.75l-3.07-6.15V297H362V282.83h3.54l3.66,7.39,3.69-7.39h3.52V297Z" style="fill:#020100"></path><path d="M383,282.83h2.95L391.05,297h-3.34l-1.1-3.17h-4.39L381.14,297H377.8Zm3.13,8.72-1.66-5-1.69,5Z" style="fill:#020100"></path><path d="M392.45,297V282.83h3.26V297Z" style="fill:#020100"></path><path d="M398.42,297V282.83h3.26V294.1h6.85V297Z" style="fill:#020100"></path></g><path d="M335,259.85V307H284.31V260.3a24.93,24.93,0,0,1,24.93-24.94h1.3A24.5,24.5,0,0,1,335,259.85Z" style="fill:#020100;opacity:0.30000000000000004"></path><path d="M275.16,316.29l6.26-5.26h56.49l-5.67,4.76C314,331.13,289,343.57,273.62,343.57h-3.69C254.87,343.57,252.68,333.63,275.16,316.29Z" style="fill:#37474f"></path><path d="M337.91,311l-5.67,4.76C314,331.14,289,343.57,273.62,343.57h-4c-14.77-.14-16.77-10.05,5.55-27.28l6.26-5.25Z" style="fill:#37474f"></path><path d="M333.73,311l-5.67,4.76c-18.21,15.28-43.1,27.68-58.45,27.77-14.77-.14-16.77-10.05,5.55-27.28l6.26-5.25Z" style="fill:#455a64"></path><polygon points="418.22 334.31 418.22 348.73 388.24 311.04 399.71 311.04 418.22 334.31" style="fill:#455a64"></polygon><polygon points="418.22 348.73 413.99 348.73 384.01 311.04 388.25 311.04 418.22 348.73" style="fill:#37474f"></polygon><path d="M371.82,206.89v13.35H359.6v50.17a4.23,4.23,0,0,1-4.24,4.23h0a4.23,4.23,0,0,1-4.23-4.23V203.54l8.47,1.37Z" style="fill:#455a64"></path><path d="M371.83,206.89v13.35H359.6v50.17a4.25,4.25,0,0,1-3.35,4.14h0a4.17,4.17,0,0,1-.88.09,3.2,3.2,0,0,1-.7-.07,4.08,4.08,0,0,1-2.29-1.17,4.23,4.23,0,0,1-1.23-3V203.54l8.46,1.37Z" style="fill:#455a64"></path><path d="M355.36,274.64h-3.3a3.6,3.6,0,0,1-3.63-3.38V203.54h2.71v66.87a4.23,4.23,0,0,0,1.23,3A5,5,0,0,0,355.36,274.64Z" style="fill:#37474f"></path><path d="M335.75,271.44a.29.29,0,0,1-.1,0l-.62.2V293l-8.41-3.54-4.94-2.09-2.18-.91-1.41-.6-.07,0-1.51-.63-.45-.19-.6-.26-12.41-5.23,2.63-6.24.5-1.19,2.24-5.3.91-2.17.36-.84,1.57-3.72,1.76-4.19,6.82-16.17,8.86,3.74A24.49,24.49,0,0,1,335,259.86v11.66l.6-.06Z" style="fill:#fff"></path><path d="M335.75,271.44a.29.29,0,0,1-.1,0l-.62.2v.49l-.21-.42a1.51,1.51,0,0,0-.09-.18l-.15-.32a3.36,3.36,0,0,1-.16-.33l-2-4.13c-.08-.18-.17-.35-.26-.53l-1.78-3.72c-.36-.75-.72-1.49-1.07-2.24a2.56,2.56,0,0,1-.11-.24q-1.35-2.82-2.68-5.67l-2-4.32c-1.55-3.46-3.15-6.87-4.66-10.37,1.82,3.22,3.54,6.51,5.31,9.77.85,1.6,1.7,3.2,2.53,4.8s1.79,3.39,2.67,5.1l.36.69c.38.73.76,1.46,1.13,2.2.47.9.94,1.81,1.4,2.72l.21.4,1.58,3.12v3l.6-.06Z" style="fill:#dbdbdb"></path><path d="M335.75,271.44a.29.29,0,0,1-.1,0l-.62.2-.21.07-.51.16c-2.14.66-4.29,1.25-6.45,1.8l-.72.18-1.56.39-.2.05-1.86.43-3.63.81c-2.57.54-5.13,1.06-7.72,1.5l-.31.06-1.57.26c-2.18.36-4.36.68-6.56.91,1.89-.62,3.79-1.17,5.69-1.68l1.68-.44.52-.14c2.65-.68,5.31-1.28,8-1.87l2.39-.5,2.1-.41,2.58-.48,1-.17.54-.09c2-.34,3.95-.64,5.95-.88l.61-.07.3,0,.6-.06Z" style="fill:#dbdbdb"></path><path d="M335.75,271.44a.29.29,0,0,1-.1,0l-.62.2v25.25l-1.4.15-2.68.3-26.72,2.92-.59-5.42-.07-.62-.16-1.46v-.13l-2.6-23.79-.07-.6-.08-.73-.81-7.49-.3-2.72L313,255.86l13.49-1.48,1.17-.12,6.52-.72a24.39,24.39,0,0,1,.83,6.32v11.66l.6-.06Z" style="fill:#ebebeb"></path><path d="M335,280.66v2.11l-.41-.29c-.46-.31-.93-.63-1.39-1-1.67-1.15-3.34-2.32-5-3.49l-.16-.11-.29-.2-.3-.2-2-1.41-1-.69c-.32-.22-.64-.44-1-.67L322,273.66q-2.09-1.44-4.15-2.93-3.16-2.25-6.32-4.55l-2.18-1.57-.67-.49c-1.83-1.37-3.67-2.71-5.5-4.07q-1.82-1.33-3.62-2.72,2.18,1.34,4.33,2.72l5.07,3.23.75.49L313,265.9q2.67,1.73,5.33,3.5c1.93,1.27,3.86,2.56,5.79,3.85l1.4.95.1.07.84.57c.76.5,1.51,1,2.26,1.52h0l5.9,4Z" style="fill:#c7c7c7"></path><path d="M328.89,277.32l-.08.08-1,1c-1.55,1.62-3.14,3.18-4.76,4.71-2,1.88-4,3.7-6.06,5.51s-4.13,3.55-6.26,5.26-4.28,3.4-6.52,5c1.85-2,3.81-3.94,5.78-5.81s4-3.71,6.06-5.51,4.14-3.57,6.27-5.28c1.69-1.37,3.42-2.72,5.19-4l1.24-.88Z" style="fill:#c7c7c7"></path><path d="M335.75,271.44a.29.29,0,0,1-.1,0l-.62.2v31.59H291.28V260.05H335v11.47l.6-.06Z" style="fill:#fff"></path><path d="M335,280v2.12l-.41.36-.77.68a3.2,3.2,0,0,0-.27.25l-.25.22-.16.14-6.55,5.68-.89.77-.39.32-.38-.32-3.28-2.86L320.06,286l-1-.9a2.25,2.25,0,0,1-.24-.21l-1.17-1-.07-.06-.15-.14-.27-.23a3.11,3.11,0,0,1-.28-.23q-3.28-2.87-6.56-5.78c-.29-.25-.58-.5-.87-.77L308,275.36l-2.33-2.09q-2.44-2.17-4.88-4.4l-.57-.51-.62-.56c-2.77-2.59-5.58-5.11-8.33-7.75,2.93,2.26,5.8,4.63,8.7,6.94l.67.55c.24.2.49.39.73.6q2.4,2,4.8,3.94l2.43,2,2.49,2.08,1.07.89q3,2.52,6,5.08h0l.45.38,1.16,1,.52.44,1,.84,4,3.44c2.38-2,4.76-4.08,7.15-6.09l0,0,.71-.61,1.37-1.15Z" style="fill:#dbdbdb"></path><path d="M318.28,283.12l-.08.07-1.07.91q-2.56,2.16-5.24,4.17c-2.17,1.65-4.39,3.24-6.62,4.81s-4.49,3.08-6.8,4.56-4.62,2.91-7,4.23c2.07-1.81,4.22-3.49,6.39-5.14s4.4-3.25,6.62-4.82,4.5-3.09,6.8-4.57c1.84-1.17,3.7-2.33,5.6-3.41.44-.26.88-.5,1.33-.75Z" style="fill:#dbdbdb"></path><path d="M335,284.62v.71l-1.45-1.21-.41-.35-.67-.57-.09-.08.11.05.81.46.52.3Z" style="fill:#dbdbdb"></path><path d="M335.75,271.44a.29.29,0,0,1-.1,0l-.62.2v34L328.15,307l-50.5,9.77-8.21-42.42,14.87-2.88,7-1.34,9-1.74.5-.09.65-.13,7-1.36,3.09-.6,1.45-.28,17.41-3.37,1.47-.28,3.19-.62v9.89l.6-.06Z" style="fill:#ebebeb"></path><path d="M335,262.88v.32c-.52.73-1,1.45-1.58,2.17l-1,1.41c-.93,1.26-1.86,2.51-2.78,3.78l-1.46,1.95-1,1.37-.72,1-1,1.27q-1.32,1.75-2.65,3.49l-3,3.92q-.53.66-1,1.32c-.26.33-.51.66-.77,1-.06.09-.13.17-.19.25-.74.95-1.47,1.9-2.21,2.84l-.21.3-.22.28-.12.15-1.62,2.07L309,297.39l-.33.39-.43-.25-1.19-.69-.54-.31-2.87-1.66-.53-.3-1.31-.77-2.07-1.2-.17-.1-.31-.18a2.48,2.48,0,0,1-.31-.18q-3.84-2.22-7.66-4.49l-2.51-1.49-4.46-2.66-5.22-3.16c-3.21-2-6.44-4-9.65-6,3.31,1.66,6.58,3.43,9.86,5.15l5,2.71c1.61.87,3.21,1.74,4.82,2.63l2.15,1.19c2.92,1.6,5.85,3.24,8.77,4.89h0l3.24,1.83.1.06c.42.23.84.46,1.26.71,1,.58,2.07,1.16,3.11,1.76l.47.26,2.38-3c1.16-1.45,2.32-2.9,3.48-4.33,0,0,0,0,0,0l2.39-3c.36-.46.73-.91,1.11-1.37.09-.13.19-.25.3-.38l.15-.19.58-.72,3.33-4.09,2.49-3,.91-1.1.1-.12c.39-.48.78-1,1.18-1.43.82-1,1.63-2,2.45-2.93q1.53-1.79,3-3.59l1.09-1.28C333.83,264.27,334.43,263.57,335,262.88Z" style="fill:#c7c7c7"></path><path d="M300.34,291.83l-.07.09-.88,1.1q-2.11,2.61-4.36,5.08c-1.81,2-3.69,4-5.58,6s-3.83,3.88-5.81,5.76-4,3.74-6.09,5.49c1.68-2.17,3.47-4.23,5.29-6.26s3.7-4,5.58-6,3.84-3.89,5.82-5.77c1.57-1.51,3.18-3,4.84-4.42l1.17-1Z" style="fill:#c7c7c7"></path><path d="M335,297.73v1.36c-1.37-.56-2.73-1.14-4.08-1.72l-2.08-.9c-2.49-1.12-5-2.26-7.41-3.47-2-1-4-2-5.91-3.08h0l-.47-.27-.77-.43h0l-.06,0,.08,0h0l.87.3.58.19h0c2.06.7,4.08,1.48,6.1,2.28,2.54,1,5,2.09,7.54,3.19,1.4.63,2.79,1.26,4.18,1.91Z" style="fill:#c7c7c7"></path></g><g id="freepik--Table--inject-7"><polygon points="459.98 443.11 407.49 443.36 354.99 443.44 250 443.61 145.01 443.45 92.52 443.36 40.02 443.11 92.52 442.87 145.01 442.78 250 442.62 354.99 442.78 407.49 442.87 459.98 443.11" style="fill:#263238"></polygon></g></svg>